<svg xmlns="http://www.w3.org/2000/svg" xmlns:xlink="http://www.w3.org/1999/xlink" width="724.886" height="726.482" viewBox="0 0 724.886 726.482"><defs><style>.a{fill:none;}.b{fill:#151d5e;opacity:0.57;}.c{fill:url(#a);}.d{fill:url(#b);}.e{fill:url(#c);}.f{fill:url(#d);}.g{clip-path:url(#e);}.h{fill:url(#f);}.i{fill:url(#g);}.j{fill:#fff;}</style><linearGradient id="a" x1="-0.076" y1="1.031" x2="0.732" y2="0.196" gradientUnits="objectBoundingBox"><stop offset="0" stop-color="#3b56f4"/><stop offset="1" stop-color="#2b76e2"/></linearGradient><linearGradient id="b" x1="0.359" y1="0.104" x2="0.982" y2="1.319" gradientUnits="objectBoundingBox"><stop offset="0" stop-color="#1562af"/><stop offset="1" stop-color="#1fbfaf"/></linearGradient><linearGradient id="c" x1="7.652" y1="-0.016" x2="4.062" y2="0.243" gradientUnits="objectBoundingBox"><stop offset="0" stop-color="#064693"/><stop offset="1" stop-color="#fff"/></linearGradient><linearGradient id="d" x1="-4.066" y1="1.379" x2="2.214" y2="0.17" xlink:href="#b"/><clipPath id="e"><path class="a" d="M2460.138,1261.417c-2.65-2.7-8.431-13.1-13.376-39.987-4.787-25.991-7.422-59.7-7.422-94.925s2.635-68.936,7.422-94.928c4.95-26.895,10.726-37.3,13.376-39.987,2.65,2.7,8.431,13.1,13.376,39.987,4.787,25.992,42.545,59.7,42.545,94.928s-37.758,68.934-42.545,94.925C2468.564,1248.32,2462.788,1258.721,2460.138,1261.417Z" transform="translate(-2439.34 -991.59)"/></clipPath><linearGradient id="f" x1="1.343" y1="0.039" x2="-0.453" y2="1.063" xlink:href="#a"/><linearGradient id="g" x1="0.526" y1="0.934" x2="0.436" y2="-0.664" xlink:href="#a"/></defs><g transform="translate(-1060.916 1654.735) rotate(-11)"><path class="b" d="M1006.177,762.841c-62.6,146.32-227.844,209.167-357.314,198.453-35.353-2.927-106.478-8.814-162.015-61.334-106.654-100.85-90.228-311.682,11.869-435.8C511.866,448.172,602.876,341.078,744.7,342.512c103.823,1.05,176.712,59.705,185.576,67a286.57,286.57,0,0,1,58.136,65.973C1040.708,557.257,1045.294,671.405,1006.177,762.841Z" transform="translate(920.521 -1648.656)"/><g transform="translate(1450.146 -1174.566)"><path class="c" d="M1006.49,1783s48.032,126.676,63.208,153.029c17.616,30.592,69.062,11.1,66.5-14.5s-62.669-131.417-62.669-131.417Z" transform="translate(-995.767 -1584.133)"/><path class="d" d="M2151.459,731.231,2450,627.72l-3.136,280.113L2143.3,840.1Z" transform="translate(-2075.834 -624.639)"/><ellipse class="e" cx="29.33" cy="143.95" rx="29.33" ry="143.95" transform="translate(345.116)"/><path class="f" d="M2460.138,1261.417c-2.65-2.7-8.431-13.1-13.376-39.987-4.787-25.991-7.422-59.7-7.422-94.925s2.635-68.936,7.422-94.928c4.95-26.895,10.726-37.3,13.376-39.987,2.65,2.7,8.431,13.1,13.376,39.987,4.787,25.992,7.421,59.7,7.421,94.928s-2.635,68.934-7.421,94.925C2468.564,1248.32,2462.788,1258.721,2460.138,1261.417Z" transform="translate(-2083.466 -983.361)"/><g class="g" transform="translate(355.874 8.229)"><path class="h" d="M2409.256,1407.627c0,24.459-13.174,44.289-39.252,44.289s-47.213-19.829-47.213-44.289,21.142-44.287,47.213-44.287S2409.256,1383.17,2409.256,1407.627Z" transform="translate(-2350.865 -1273.791)"/></g><path class="i" d="M989.443,1371.25a167.265,167.265,0,0,1,55.958,2.768c-7.166,37.477-6.094,76.534,2.214,116.969H986.188A19.9,19.9,0,0,1,966.52,1474.2c-3.059-19.386-6.8-51.971-2.811-78.141a29.451,29.451,0,0,1,25.734-24.811Z" transform="translate(-961.976 -1270.681)"/><path class="j" d="M1064.469,1455.813h-47.84a4.365,4.365,0,0,1-3.664-6.745,1.231,1.231,0,1,1,2.067,1.337,1.9,1.9,0,0,0,1.6,2.936h47.84a1.9,1.9,0,0,0,1.9-1.9v-3.4a1.9,1.9,0,0,0-1.9-1.9h-48.194a1.231,1.231,0,1,1,0-2.462h48.194a4.37,4.37,0,0,1,4.365,4.365v3.423A4.37,4.37,0,0,1,1064.469,1455.813Z" transform="translate(-1000.147 -1326.542)"/><path class="j" d="M1046.768,1543.817H998.919a4.365,4.365,0,0,1-3.664-6.745,1.231,1.231,0,1,1,2.067,1.339,1.9,1.9,0,0,0,1.6,2.934h47.849a1.9,1.9,0,0,0,1.9-1.9v-3.4a1.905,1.905,0,0,0-1.9-1.9h-48.2a1.231,1.231,0,1,1,0-2.459h48.2a4.367,4.367,0,0,1,4.365,4.362v3.406A4.37,4.37,0,0,1,1046.768,1543.817Z" transform="translate(-986.703 -1393.356)"/><path class="j" d="M1452.02,1133.92a1.228,1.228,0,0,1-.373-2.409l226.111-71.955a1.231,1.231,0,1,1,.747,2.346l-226.111,71.952A1.2,1.2,0,0,1,1452.02,1133.92Z" transform="translate(-1333.017 -1034.911)"/><path class="j" d="M1325.193,1397.63a1.231,1.231,0,0,1-.465-2.37l11.637-4.755a1.231,1.231,0,0,1,.93,2.279l-11.637,4.765A1.2,1.2,0,0,1,1325.193,1397.63Z" transform="translate(-1236.766 -1286.123)"/><path class="j" d="M1064.469,1646.817h-47.84a4.365,4.365,0,0,1-3.664-6.745,1.231,1.231,0,1,1,2.067,1.337,1.9,1.9,0,0,0,1.6,2.939h47.84a1.905,1.905,0,0,0,1.9-1.905v-3.4a1.9,1.9,0,0,0-1.9-1.9h-48.194a1.231,1.231,0,1,1,0-2.459h48.194a4.367,4.367,0,0,1,4.365,4.362v3.423a4.37,4.37,0,0,1-4.365,4.355Z" transform="translate(-1000.147 -1471.537)"/><path class="j" d="M1083.079,1761.177h-47.849a4.365,4.365,0,0,1-3.664-6.745,1.231,1.231,0,1,1,2.067,1.337,1.9,1.9,0,0,0,1.6,2.939h47.849a1.905,1.905,0,0,0,1.9-1.9V1753.4a1.905,1.905,0,0,0-1.9-1.9h-48.2a1.231,1.231,0,1,1,0-2.459h48.2a4.37,4.37,0,0,1,4.365,4.362v3.406A4.37,4.37,0,0,1,1083.079,1761.177Z" transform="translate(-1014.267 -1558.349)"/><path class="j" d="M1214.782,2090.363a31.256,31.256,0,0,1-6.656-.723,30.789,30.789,0,0,1-21.728-17.6l-38.231-84.931a1.231,1.231,0,1,1,2.245-1.009l38.228,84.938a28.352,28.352,0,0,0,20.008,16.2,27.748,27.748,0,0,0,24.445-6.251q.542-.482,1.089-.963a1.231,1.231,0,0,1,1.66,1.816q-.569.516-1.127,1.007A30.111,30.111,0,0,1,1214.782,2090.363Z" transform="translate(-1103.235 -1737.758)"/><path class="j" d="M1112.386,1905.859a1.233,1.233,0,0,1-1.122-.723L1107,1895.66a1.231,1.231,0,0,1,2.245-1.01l4.263,9.474a1.226,1.226,0,0,1-1.12,1.735Z" transform="translate(-1071.982 -1668.337)"/><path class="j" d="M2507.349,1424.884a1.228,1.228,0,0,1-1.226-1.142c-.85-11.984-5.006-20.921-12.348-26.558-12.695-9.746-30.812-6.4-30.995-6.362a1.231,1.231,0,1,1-.465-2.409c.785-.152,19.394-3.587,32.958,6.827,7.925,6.085,12.4,15.617,13.3,28.333a1.233,1.233,0,0,1-1.142,1.315Z" transform="translate(-2100.073 -1284.094)"/></g></g></svg>