<svg xmlns="http://www.w3.org/2000/svg" xmlns:xlink="http://www.w3.org/1999/xlink" width="856.257" height="557.06" viewBox="0 0 856.257 557.06"><defs><style>.a{opacity:0.64;}.b{fill:#151d5e;}.c{opacity:0;}.d{fill:#e6e6e6;}.e{fill:#ba68c8;}.f{fill:#62a5f2;}.g,.j,.o{fill:#2866cc;}.g{opacity:0.6;}.h{fill:url(#a);}.i{fill:#3495f9;}.j{opacity:0.26;}.k{fill:#4f84c1;opacity:0.17;}.l{fill:#c4f5de;opacity:0.24;}.m{fill:#37474f;}.n{fill:#263238;}.p{opacity:0.2;}.q{fill:#3f7fda;}.r,.s{fill:#fff;}.s{opacity:0.16;}.t{fill:#fafafa;}</style><linearGradient id="a" x1="0.5" x2="0.5" y2="1" gradientUnits="objectBoundingBox"><stop offset="0" stop-color="#41ee9d"/><stop offset="1" stop-color="#3f7fda"/></linearGradient></defs><g transform="translate(-837.869 -218.47)"><g class="a" transform="translate(837.869 281.177)"><ellipse class="b" cx="428.129" cy="247.176" rx="428.129" ry="247.176" transform="translate(0 0)"/></g><g class="c" transform="translate(979.106 418.206)"><path class="d" d="M162.229,312.886c90.689-52.341,237.7-52.341,328.376,0,76.863,44.372,88.539,112.115,35.1,163.623L725.233,590.236c12.159,7.025,12.159,18.4,0,25.429l-17.941,10.361c-12.159,7.024-31.509,6.468-43.3-1.223L489.771,502.957c-90.819,51.9-237.093,51.693-327.468-.482C71.558,450.116,71.558,365.246,162.229,312.886Z" transform="translate(-94.235 -273.63)"/></g><path class="e" d="M109.83,368.278v56.4c0,30.619,20.24,61.164,60.7,84.61,80.922,46.725,212.146,46.725,293.068,0,40.461-23.372,60.7-53.991,60.7-84.61v-56.4h0c0-30.619-20.24-61.164-60.7-84.591-80.922-46.726-212.146-46.726-293.068,0-40.461,23.353-60.7,53.972-60.7,84.591Zm394.414,0c0,24.5-18,48.375-50.673,67.243-36.142,20.87-84.61,32.361-136.507,32.361S216.7,456.391,180.558,435.521c-32.676-18.868-50.673-42.741-50.673-67.243s18-48.375,50.673-67.243c36.142-20.87,84.61-32.361,136.507-32.361s100.383,11.491,136.507,32.361C486.266,319.9,504.244,343.831,504.244,368.278Z" transform="translate(898.18 123.251)"/><path class="f" d="M109.83,368.278v56.4c0,30.619,20.24,61.164,60.7,84.61,80.922,46.725,212.146,46.725,293.068,0,40.461-23.372,60.7-53.991,60.7-84.61v-56.4h0c0-30.619-20.24-61.164-60.7-84.591-80.922-46.726-212.146-46.726-293.068,0-40.461,23.353-60.7,53.972-60.7,84.591Zm394.414,0c0,24.5-18,48.375-50.673,67.243-36.142,20.87-84.61,32.361-136.507,32.361S216.7,456.391,180.558,435.521c-32.676-18.868-50.673-42.741-50.673-67.243s18-48.375,50.673-67.243c36.142-20.87,84.61-32.361,136.507-32.361s100.383,11.491,136.507,32.361C486.266,319.9,504.244,343.831,504.244,368.278Z" transform="translate(898.18 123.251)"/><path class="g" d="M524.095,404.742c-3.225,19.406-11.769,34.011-46.188,60.867-48.653,38-171.852,53.509-243.358,29.915-67.447-22.242-88.966-65.779-88.966-95.638l.185-17.552c-10.416-12.4-15.9-25.726-15.9-39.256,0-13.864,5.764-27.524,16.681-40.183l.241-24.725h-3.837c-22.075,19.7-33.121,42.3-33.121,64.871v56.4c0,30.619,20.24,61.164,60.7,84.61,80.922,46.725,212.146,46.725,293.068,0C501.742,462.069,521.908,433.545,524.095,404.742Z" transform="translate(898.18 148.451)"/><path class="e" d="M463.607,283.687c-80.94-46.726-212.146-46.726-293.068,0s-80.94,122.476,0,169.2,212.127,46.725,293.068,0S544.529,330.412,463.607,283.687ZM453.58,435.521c-36.142,20.87-84.629,32.361-136.507,32.361s-100.364-11.491-136.525-32.361c-32.676-18.868-50.673-42.741-50.673-67.243s18-48.375,50.673-67.243c36.142-20.87,84.629-32.361,136.525-32.361s100.364,11.491,136.507,32.361c32.676,18.868,50.673,42.759,50.673,67.243s-18,48.375-50.673,67.243Z" transform="translate(898.19 123.251)"/><path class="h" d="M463.607,283.687c-80.94-46.726-212.146-46.726-293.068,0s-80.94,122.476,0,169.2,212.127,46.725,293.068,0S544.529,330.412,463.607,283.687ZM453.58,435.521c-36.142,20.87-84.629,32.361-136.507,32.361s-100.364-11.491-136.525-32.361c-32.676-18.868-50.673-42.741-50.673-67.243s18-48.375,50.673-67.243c36.142-20.87,84.629-32.361,136.525-32.361s100.364,11.491,136.507,32.361c32.676,18.868,50.673,42.759,50.673,67.243s-18,48.375-50.673,67.243Z" transform="translate(898.19 123.251)"/><path class="i" d="M495.047,359.054a55.491,55.491,0,0,1-8.1,28.209c-8.211-14.216-22.686-27.561-42.629-39.034-36.105-20.888-84.61-32.38-136.507-32.38s-100.364,11.491-136.488,32.38c-19.925,11.473-34.382,24.818-42.629,39.034a55.974,55.974,0,0,1-8.044-28.209c0-24.484,18-48.375,50.692-67.262,36.124-20.833,84.61-32.343,136.488-32.343s100.4,11.51,136.507,32.343C477.05,310.679,495.047,334.607,495.047,359.054Z" transform="translate(907.415 132.474)"/><path class="j" d="M495.047,359.054a55.491,55.491,0,0,1-8.1,28.209c-8.211-14.216-22.686-27.561-42.629-39.034-36.105-20.888-84.61-32.38-136.507-32.38s-100.364,11.491-136.488,32.38c-19.925,11.473-34.382,24.818-42.629,39.034a55.974,55.974,0,0,1-8.044-28.209c0-24.484,18-48.375,50.692-67.262,36.124-20.833,84.61-32.343,136.488-32.343s100.4,11.51,136.507,32.343C477.05,310.679,495.047,334.607,495.047,359.054Z" transform="translate(905.728 146.67)"/><path class="k" d="M171.342,290.965c-32.695,18.887-50.692,42.778-50.692,67.262a55.974,55.974,0,0,0,8.063,28.21c8.266-14.216,22.723-27.561,42.629-39.034a207.227,207.227,0,0,1,26.171-12.622c-7.9,3.058-32.139,10.861-23.3-12.251,10.509-27.45,61.794-57.179,99.475-62.109h0C234.934,264.257,199.4,274.784,171.342,290.965Z" transform="translate(907.415 133.302)"/><path class="l" d="M443.587,305.591c-36.142-20.87-84.629-32.361-136.507-32.361S206.7,284.721,170.555,305.591c-26.949,15.569-43.89,34.548-49.005,54.473,5.116,19.925,22.056,38.922,49.005,54.473,36.161,20.87,84.629,32.361,136.525,32.361s100.364-11.491,136.507-32.361c26.968-15.569,43.908-34.548,49.005-54.473C487.514,340.14,470.555,321.16,443.587,305.591Z" transform="translate(908.183 132.15)"/><g transform="translate(1355.625 584.828)"><path class="m" d="M297.38,390.74a32.046,32.046,0,0,1,14.42-25.207c3.966-2.317,7.581-2.558,10.212-1.075h0L368.2,390.87h0c2.613,1.5,4.244,4.745,4.263,9.267a32.1,32.1,0,0,1-14.42,25.207c-4,2.335-7.636,2.576-10.268,1.057h0l-46.17-26.393h0C299.048,398.636,297.4,395.392,297.38,390.74Z" transform="translate(-297.38 -363.528)"/><path class="n" d="M301.7,392.608c-2.65-1.5-4.3-4.745-4.319-9.4a27.284,27.284,0,0,1,2.465-10.861l66.372,38.033a27.8,27.8,0,0,1-8.081,7.562c-4,2.335-7.636,2.576-10.268,1.056Z" transform="translate(-297.38 -355.999)"/></g><path d="M502.892,453.877h0l-146.979-74.9h0l-.185-.111h0c-3.41-1.853-8.044-1.52-13.141,1.446-10.416,6.079-18.812,20.759-18.757,32.806,0,6.042,2.169,10.268,5.56,12.233l138.138,88.966h0a35.03,35.03,0,1,0,35.345-60.441Z" transform="translate(1080.818 233.413)"/><path d="M329.426,413.374,467.564,502.34a34.993,34.993,0,0,0,53.528-27.413c-2.65,11.51-21.667,21.3-45.243,8.118S364.938,414.653,325.256,391.8a32.2,32.2,0,0,0-1.446,9.267C323.828,407.184,326.016,411.41,329.426,413.374Z" transform="translate(1080.801 245.428)"/><path class="o" d="M329.4,425.369c-3.447-1.965-5.56-6.191-5.56-12.233,0-12.047,8.341-26.727,18.757-32.806,5.1-2.966,9.731-3.281,13.141-1.446l12.974,6.6c-3.5-1.853-8.229-1.557-13.475,1.483-10.676,6.228-19.294,21.3-19.239,33.659,0,6.191,2.131,10.62,5.653,12.622" transform="translate(1080.827 233.434)"/><path class="p" d="M341.644,421.251c-3.522-2-5.56-6.431-5.653-12.622a33.1,33.1,0,0,1,1.5-9.657c-4.43-2.632-8.563-5.041-12.251-7.173a36.949,36.949,0,0,0-1.094,4.726q-.167,1.168-.278,2.335a18.719,18.719,0,0,0,0,2.28c0,6.042,2.169,10.268,5.56,12.233Z" transform="translate(1080.816 245.428)"/><path class="e" d="M208.815,475.372,97.607,419.75l-44.3,19.609Z" transform="translate(849.943 269.282)"/><g transform="translate(903.254 689.032)"><path class="f" d="M208.815,475.372,97.607,419.75l-44.3,19.609Z" transform="translate(-53.31 -419.75)"/></g><path class="e" d="M182.315,491.519,84.36,426.037l17.534-25.207Z" transform="translate(876.443 253.135)"/><g transform="translate(960.803 653.965)"><path class="f" d="M182.315,491.519,84.36,426.037l17.534-25.207Z" transform="translate(-84.36 -400.83)"/></g><path class="e" d="M84.36,414.43l1.835,17.4,96.12,48.079Z" transform="translate(876.443 264.742)"/><g transform="translate(960.803 679.172)"><path class="q" d="M84.36,414.43l1.835,17.4,96.12,48.079Z" transform="translate(-84.36 -414.43)"/></g><g transform="translate(904.419 449.357)"><path class="r" d="M77.294,415.074a1.093,1.093,0,0,0,.723-.3,1.3,1.3,0,0,0,.111-1.724L76,410.2a1.038,1.038,0,0,0-1.557-.148,1.316,1.316,0,0,0-.13,1.724c.7.945,1.427,1.854,2.15,2.8a1.094,1.094,0,0,0,.834.5Z" transform="translate(-36.777 -188.595)"/><path class="r" d="M84.689,501.634q-1.983-2.892-3.837-5.838a1.316,1.316,0,0,1,.278-1.705,1.019,1.019,0,0,1,1.52.3c1.242,1.946,2.5,3.874,3.707,5.783a1.279,1.279,0,0,1-.222,1.705.981.981,0,0,1-.649.241,1.093,1.093,0,0,1-.8-.482Zm-9.8-15.921c-1.131-2.057-2.243-4.152-3.3-6.246a1.3,1.3,0,0,1,.426-1.668,1.038,1.038,0,0,1,1.5.482c1.038,2.057,2.131,4.115,3.244,6.153a1.3,1.3,0,0,1-.352,1.687,1.129,1.129,0,0,1-.575.167A1.094,1.094,0,0,1,74.885,485.713Zm-8.266-16.978c-.927-2.206-1.853-4.43-2.632-6.635a1.279,1.279,0,0,1,.593-1.594,1.075,1.075,0,0,1,1.446.667c.8,2.169,1.668,4.356,2.595,6.524a1.3,1.3,0,0,1-.537,1.631,1.055,1.055,0,0,1-.463.111,1.112,1.112,0,0,1-1-.7Zm-6.413-17.941c-.667-2.317-1.3-4.671-1.853-6.95a1.223,1.223,0,0,1,.778-1.5,1.093,1.093,0,0,1,1.353.853c.538,2.261,1.149,4.559,1.853,6.839a1.26,1.26,0,0,1-.7,1.538H61.3A1.131,1.131,0,0,1,60.205,450.794Zm-4.3-18.738c-.371-2.354-.7-4.763-.982-7.154a1.186,1.186,0,0,1,.945-1.372,1.168,1.168,0,0,1,1.242,1.056c.259,2.354.593,4.726.964,7.043a1.2,1.2,0,0,1-.871,1.409H57A1.168,1.168,0,0,1,55.905,432.055Zm-1.853-19.2c0-1.853-.111-3.707-.111-5.69v-1.557a1.149,1.149,0,0,1,1.094-1.2h0a1.168,1.168,0,0,1,1.075,1.242v7.08A1.186,1.186,0,0,1,55.053,414h0a1.149,1.149,0,0,1-1-1.149Zm1.464-17.96a1.2,1.2,0,0,1-.982-1.335c.2-2.391.463-4.819.76-7.21a1.112,1.112,0,0,1,1.26-1.019,1.186,1.186,0,0,1,.927,1.371c-.3,2.354-.556,4.745-.76,7.08a1.168,1.168,0,0,1-1.094,1.112Zm2.595-18.942a1.223,1.223,0,0,1-.816-1.464c.482-2.354,1.038-4.708,1.65-7.025a1.075,1.075,0,0,1,1.353-.834,1.26,1.26,0,0,1,.76,1.52c-.593,2.261-1.149,4.6-1.631,6.895a1.112,1.112,0,0,1-1.056.945Zm5-18.331a1.242,1.242,0,0,1-.612-1.575c.8-2.224,1.687-4.467,2.613-6.654a1.075,1.075,0,0,1,1.464-.593,1.316,1.316,0,0,1,.538,1.631c-.927,2.15-1.853,4.337-2.576,6.524a1.094,1.094,0,0,1-1.019.76.815.815,0,0,1-.408-.093ZM70.733,340.4a1.3,1.3,0,0,1-.389-1.687c1.131-2.057,2.317-4.115,3.522-6.1a1.038,1.038,0,0,1,1.538-.334,1.335,1.335,0,0,1,.3,1.705c-1.2,1.946-2.372,3.966-3.466,5.987a1.075,1.075,0,0,1-.945.593A1.019,1.019,0,0,1,70.733,340.4Zm9.842-15.736a1.3,1.3,0,0,1-.13-1.705c1.39-1.853,2.854-3.707,4.319-5.449a1.019,1.019,0,0,1,1.557,0,1.3,1.3,0,0,1,0,1.724c-1.446,1.724-2.873,3.5-4.244,5.338a1.056,1.056,0,0,1-.853.445,1,1,0,0,1-.741-.352ZM92.492,310.8a1.3,1.3,0,0,1,0-1.724c1.631-1.612,3.318-3.188,5-4.671a1.038,1.038,0,0,1,1.557.2,1.335,1.335,0,0,1-.185,1.724c-1.668,1.446-3.318,2.984-4.93,4.559a1.038,1.038,0,0,1-.723.315,1.056,1.056,0,0,1-.816-.408Zm13.641-11.732a1.335,1.335,0,0,1,.334-1.687c1.853-1.334,3.707-2.576,5.56-3.707a1.038,1.038,0,0,1,1.483.482,1.279,1.279,0,0,1-.426,1.65c-1.853,1.112-3.707,2.335-5.56,3.707a1.019,1.019,0,0,1-.593.185,1.13,1.13,0,0,1-.89-.63Z" transform="translate(-53.939 -287.796)"/><path class="r" d="M91.415,293.7h.334a16.9,16.9,0,0,1,3.021-.834,1.2,1.2,0,0,0,.927-1.39,1.131,1.131,0,0,0-1.242-1.038,21.036,21.036,0,0,0-3.373.927,1.242,1.242,0,0,0-.723,1.538A1.131,1.131,0,0,0,91.415,293.7Z" transform="translate(-22.91 -290.437)"/></g><path class="s" d="M513.817,347.289c-7.9.093-13.771-5.431-17.46-12.381C520.008,305.828,536,267.091,536,233.21c0-25.114-8.8-42.759-22.983-50.914l-19.554-11.269c-13.956-8.063-33.121-6.95-54.306,5.264-42.629,24.651-77.27,85.018-77.27,134.857,0,25.077,8.767,42.629,22.909,50.877,3.3,1.853,16.292,9.378,19.5,11.25,13.975,8.137,33.2,7.062,54.436-5.208a117.661,117.661,0,0,0,16.143-11.306c14.346,11.362,31.842-1.019,38.774-6.95C514.577,349.032,514.688,347.289,513.817,347.289Z" transform="translate(1113.301 52.604)"/><path class="t" d="M414.969,371.618c-25.837,0-41.869-21.037-41.869-54.881,0-49.376,34.4-109.354,76.659-133.8,11.825-6.821,23.131-10.287,33.6-10.287,25.818,0,41.869,21.018,41.869,54.881,0,32.38-15.087,71.061-39.367,100.92l-.5.63.371.7c4.356,8.211,10.676,12.807,17.83,12.974a.964.964,0,0,1-.259.408c-4.93,4.226-14.716,11.288-24.855,11.288h0a19.517,19.517,0,0,1-12.4-4.374l-.76-.593-.76.612a117.5,117.5,0,0,1-15.977,11.121C436.748,368.059,425.441,371.618,414.969,371.618Z" transform="translate(1122.868 58.395)"/><path class="f" d="M483.951,172v2.409c25.077,0,40.665,20.573,40.665,53.657,0,32.139-14.976,70.524-39.089,100.179l-1.019,1.242.76,1.409c4,7.562,9.638,12.214,16.107,13.382-5.134,4.1-13.641,9.564-22.334,9.564a18.33,18.33,0,0,1-11.658-4.115l-1.52-1.2-1.5,1.242a117.422,117.422,0,0,1-15.81,11.121c-11.64,6.709-22.742,10.12-32.991,10.12-25.077,0-40.665-20.573-40.665-53.75,0-48.987,34.122-108.538,75.991-132.763,11.64-6.71,22.742-10.12,32.991-10.12V172m0,0c-10.305,0-21.908,3.355-34.2,10.453-42.629,24.632-77.27,85-77.27,134.839,0,35.494,17.552,56.085,43.074,56.085,10.305,0,21.908-3.355,34.2-10.453a117.653,117.653,0,0,0,16.143-11.306,20.554,20.554,0,0,0,13.141,4.634c10.6,0,20.74-7.414,25.633-11.584.927-.778,1.038-2.521.167-2.521h-.185c-7.785,0-13.6-5.468-17.274-12.381,23.65-29.081,39.645-67.818,39.645-101.7C526.951,192.573,509.4,172,483.876,172Z" transform="translate(1122.28 57.84)"/><path class="q" d="M424.52,261.078a141.082,141.082,0,0,1,7.729-15.717A118.33,118.33,0,0,0,437.7,234.63a20.238,20.238,0,0,0,1.761-7.988c0-3.707-1.112-5.987-3.336-6.876s-5.153-.241-8.841,1.853a32.379,32.379,0,0,0-9.4,8.341,51.47,51.47,0,0,0-6.932,12.2l-13.623-2.8a80.554,80.554,0,0,1,12.789-22.241,68.58,68.58,0,0,1,19.09-16.292q12.974-7.414,20.777-4.634t7.822,15.9a43.686,43.686,0,0,1-1.52,11.7,56.17,56.17,0,0,1-3.707,10.027c-1.464,3-3.373,6.58-5.69,10.732a118.791,118.791,0,0,0-6.079,11.844,23.353,23.353,0,0,0-1.854,9.267l-17,9.823a38.794,38.794,0,0,1,2.558-14.4Zm-1.853,47.689c-2.057-1.464-3.1-4.1-3.1-7.914a23.466,23.466,0,0,1,3.04-11.287,20.906,20.906,0,0,1,7.766-8.322c3.169-1.853,5.746-2.039,7.784-.649s3.04,3.985,3.04,7.784a24.206,24.206,0,0,1-3.1,11.473,20.591,20.591,0,0,1-7.729,8.433c-2.984,1.779-5.542,1.928-7.618.482Z" transform="translate(1143.548 77.837)"/><g transform="translate(1245.773 224)"><path class="e" d="M91.951,31.233,0,3.05,70.84,51.717Z" transform="translate(0 1.51)"/><path class="f" d="M91.951,31.233,0,3.05,70.84,51.717Z" transform="translate(0 1.51)"/><path class="e" d="M0,4.56,98.963,20.483,120.075,0Z"/><path class="f" d="M0,4.56,98.963,20.483,120.075,0Z"/><path class="e" d="M98.963,18.973l.1,24.46-7.117-12.2L0,3.05Z" transform="translate(0 1.51)"/><path class="q" d="M98.963,18.973l.1,24.46-7.117-12.2L0,3.05Z" transform="translate(0 1.51)"/><path class="q" d="M70.949,34.1,56.79,28.718,63.832,21.9Z" transform="translate(28.119 10.844)"/><path class="p" d="M63.832,21.9,56.79,28.718l2.258.867Z" transform="translate(28.119 10.844)"/><g transform="translate(117.286 28.239)"><path class="r" d="M78.782,19.056a.882.882,0,0,0-.329.538,1.077,1.077,0,0,0,.777,1.166l2.721.733a.837.837,0,0,0,1.077-.673,1.062,1.062,0,0,0-.763-1.166l-2.751-.733a.822.822,0,0,0-.733.135Z" transform="translate(-78.445 -18.887)"/><path class="r" d="M87.374,21.267c1.794.6,3.558,1.211,5.323,1.869a1.062,1.062,0,0,1,.658,1.226.837.837,0,0,1-1.136.553c-1.734-.643-3.484-1.256-5.248-1.854a1.032,1.032,0,0,1-.7-1.2.762.762,0,0,1,.3-.478.852.852,0,0,1,.807-.12Zm14.069,5.412c1.749.777,3.469,1.57,5.173,2.407a1.032,1.032,0,0,1,.538,1.271.852.852,0,0,1-1.2.434c-1.689-.822-3.394-1.615-5.128-2.422a1.062,1.062,0,0,1-.583-1.256.9.9,0,0,1,.284-.4.882.882,0,0,1,.9-.03Zm13.606,6.863c1.675.957,3.334,1.959,4.934,2.99a1.032,1.032,0,0,1,.4,1.316.867.867,0,0,1-1.256.284c-1.5-1-3.215-1.974-4.844-2.916a1.032,1.032,0,0,1-.464-1.3.867.867,0,0,1,.239-.314.9.9,0,0,1,.972-.06Zm12.888,8.388c1.5,1.151,3.11,2.347,4.59,3.543a1.017,1.017,0,0,1,.239,1.346.867.867,0,0,1-1.286.1c-1.5-1.181-2.99-2.347-4.485-3.484a1.032,1.032,0,0,1-.3-1.346.6.6,0,0,1,.194-.194.9.9,0,0,1,1.032.03Zm11.886,9.928c1.405,1.331,2.8,2.706,4.142,4.112a.972.972,0,0,1,0,1.346.942.942,0,0,1-1.316,0c-1.316-1.376-2.691-2.736-4.067-4.037a.987.987,0,0,1-.12-1.346.9.9,0,0,1,.12-.12.912.912,0,0,1,1.226.045Zm10.616,11.393c.957,1.181,1.914,2.377,2.841,3.6l.763,1a.957.957,0,0,1-.12,1.316h0a.942.942,0,0,1-1.3-.254l-.733-.987c-.927-1.2-1.854-2.377-2.811-3.543a.957.957,0,0,1,0-1.331h0a.942.942,0,0,1,1.346.194Zm7.835,12.26a.972.972,0,0,1,1.286.359c1.032,1.645,2.048,3.319,2.99,5.009a.912.912,0,0,1-.3,1.271.987.987,0,0,1-1.271-.434c-.957-1.66-1.944-3.319-2.99-4.919a.927.927,0,0,1,.164-1.241Zm7.6,13.456a.987.987,0,0,1,1.241.538c.837,1.749,1.63,3.529,2.377,5.308a.9.9,0,0,1-.478,1.211,1.017,1.017,0,0,1-1.226-.613c-.718-1.749-1.5-3.5-2.317-5.2a.9.9,0,0,1,.224-1.136.523.523,0,0,1,.164-.15Zm5.741,14.2a1,1,0,0,1,1.166.718,56.333,56.333,0,0,1,1.5,5.547.852.852,0,0,1-.643,1.091,1.032,1.032,0,0,1-1.136-.792c-.463-1.809-.987-3.648-1.5-5.427a.912.912,0,0,1,.284-1,.793.793,0,0,1,.314-.179Zm3.6,14.727a1.077,1.077,0,0,1,1.062.9c.284,1.869.538,3.768.718,5.652a.822.822,0,0,1-.822.942,1.062,1.062,0,0,1-1.017-.942c-.179-1.839-.419-3.693-.7-5.532a.882.882,0,0,1,.314-.852.853.853,0,0,1,.434-.209Z" transform="translate(-74.582 -17.735)"/></g></g></g></svg>