<svg xmlns="http://www.w3.org/2000/svg" width="1922.011" height="596.58" viewBox="0 0 1922.011 596.58"><defs><style>.a{fill:#fff;}</style></defs><path class="a" d="M876.332,80.8s219.274-26.5,285.675,20.166c63.846,46.669,127.693,95.561,194.093,106.672,63.336,11.112,127.693-11.112,191.54,23.779,65.379,36.224,130.247,129.562,194.093,106.672C1806.6,314.313,1871.98,172.083,1935.826,160.3c64.357-12.667,127.693,107.339,194.093,177.787,63.591,71.782,127.693,94,191.54,106.672,65.634,11.778,130.247,11.778,194.094-35.557,65.123-48.225,282.79-177.5,282.79-177.5V669.887H876.332Z" transform="translate(-876.332 -73.307)"/></svg>