<svg xmlns="http://www.w3.org/2000/svg" xmlns:xlink="http://www.w3.org/1999/xlink" width="523.367" height="393.596" viewBox="0 0 523.367 393.596"><defs><style>.a,.b{opacity:0.6;}.a{fill:url(#a);}.b{fill:url(#b);}.c{fill:url(#c);}.d{fill:url(#d);}.e{fill:url(#e);}.f{fill:url(#f);}.g{fill:url(#g);}.h{fill:url(#k);}.i{fill:url(#l);}.j{fill:url(#m);}.k{fill:url(#n);}.l{fill:url(#o);}.m{fill:url(#p);}.n{fill:url(#q);}.o{fill:url(#r);}.p{fill:url(#s);}.q{fill:url(#t);}.r{fill:url(#u);}.s{fill:url(#v);}.aw,.t,.u{fill:#fff;}.u{opacity:0.78;}.v{fill:url(#w);}.w{fill:url(#x);}.x{fill:url(#y);}.y{fill:url(#z);}.z{fill:url(#aa);}.aa{fill:url(#ab);}.ab{fill:url(#ae);}.ac{fill:url(#af);}.ad{fill:url(#ag);}.ae{fill:url(#ah);}.af{fill:url(#ai);}.ag{fill:url(#aj);}.ah{fill:url(#ak);}.ai{fill:url(#al);}.aj{fill:url(#am);}.ak{fill:url(#an);}.al{fill:url(#ao);}.am{fill:url(#ap);}.an{fill:url(#aq);}.ao{fill:url(#ar);}.ap{fill:url(#as);}.aq{fill:url(#at);}.ar{fill:url(#au);}.as{fill:url(#av);}.at{fill:url(#aw);}.au{fill:url(#ax);}.av{fill:url(#ay);}.aw{opacity:0.87;}.ax{fill:url(#az);}.ay{fill:url(#ba);}.az{fill:url(#bb);}.ba{fill:url(#bc);}.bb{fill:url(#bd);}.bc{fill:url(#be);}.bd{fill:url(#bf);}.be{fill:url(#bh);}.bf{fill:url(#bi);}.bg{fill:url(#bj);}.bh{fill:url(#bk);}.bi{fill:url(#bl);}.bj{fill:url(#bm);}.bk{fill:url(#bn);}.bl{fill:url(#bo);}.bm{fill:url(#bp);}.bn{fill:url(#bq);}.bo{fill:url(#br);}.bp{fill:url(#bs);}.bq{fill:url(#bt);}.br{fill:url(#bv);}.bs{fill:url(#bw);}.bt{fill:url(#bx);}.bu{fill:url(#by);}.bv{fill:url(#bz);}.bw{fill:#666694;}.bx{fill:url(#ca);}.by{fill:url(#cb);}.bz{fill:url(#cc);}.ca{fill:url(#cd);}.cb{fill:url(#ce);}.cc{fill:url(#cf);}.cd{fill:url(#cg);}.ce{fill:url(#ch);}.cf{fill:url(#ci);}</style><linearGradient id="a" x1="-0.014" y1="3.267" x2="1.036" y2="3.849" gradientUnits="objectBoundingBox"><stop offset="0.09" stop-color="#84e4a4"/><stop offset="0.82" stop-color="#3c53d7"/><stop offset="1" stop-color="#2b29c6"/></linearGradient><linearGradient id="b" x1="0.063" y1="6.324" x2="1.112" y2="6.906" xlink:href="#a"/><radialGradient id="c" cx="0.5" cy="0.5" r="0.5" gradientUnits="objectBoundingBox"><stop offset="0" stop-color="#000020"/><stop offset="0.22" stop-color="#0a113b"/><stop offset="0.37" stop-color="#0c1340"/><stop offset="0.53" stop-color="#11194d"/><stop offset="0.7" stop-color="#192364"/><stop offset="0.88" stop-color="#253184"/><stop offset="1" stop-color="#2f3c9e"/></radialGradient><linearGradient id="d" x1="-4.613" y1="-2.23" x2="-0.602" y2="-0.045" gradientUnits="objectBoundingBox"><stop offset="0" stop-color="#53d8ff"/><stop offset="1" stop-color="#3840f7"/></linearGradient><linearGradient id="e" x1="0.432" y1="0.177" x2="1.182" y2="1.557" gradientUnits="objectBoundingBox"><stop offset="0.09" stop-color="#84e4a4"/><stop offset="0.97" stop-color="#3c53d7"/></linearGradient><linearGradient id="f" x1="0.114" y1="-0.161" x2="1.729" y2="2.605" gradientUnits="objectBoundingBox"><stop offset="0" stop-color="#84e4a4"/><stop offset="1" stop-color="#68b69d"/></linearGradient><linearGradient id="g" x1="0.5" y1="0" x2="0.5" y2="1" xlink:href="#d"/><linearGradient id="k" x1="2.664" y1="0.084" x2="-1.361" y2="0.948" xlink:href="#e"/><linearGradient id="l" x1="0.645" y1="-2.917" x2="0.457" y2="1.516" xlink:href="#e"/><linearGradient id="m" x1="0.612" y1="-2.609" x2="0.429" y2="2.461" xlink:href="#e"/><linearGradient id="n" x1="0.576" y1="-6.358" x2="0.457" y2="4.351" xlink:href="#e"/><linearGradient id="o" x1="0.581" y1="-7.088" x2="0.419" y2="8.088" gradientUnits="objectBoundingBox"><stop offset="0" stop-color="#43ed9c"/><stop offset="0.552" stop-color="#1860cb"/><stop offset="1" stop-color="#253867"/></linearGradient><linearGradient id="p" y1="0.5" x2="1" y2="0.5" gradientUnits="objectBoundingBox"><stop offset="0" stop-color="#cb236d"/><stop offset="1" stop-color="#4c246d"/></linearGradient><linearGradient id="q" x1="0.695" y1="0.039" x2="0.305" y2="0.961" xlink:href="#p"/><linearGradient id="r" x1="0.784" y1="0.118" x2="0.423" y2="1.23" xlink:href="#p"/><linearGradient id="s" x1="0.695" y1="0.04" x2="0.305" y2="0.96" xlink:href="#e"/><linearGradient id="t" x1="0.695" y1="0.039" x2="0.305" y2="0.961" xlink:href="#p"/><linearGradient id="u" x1="-0.184" y1="1.294" x2="0.486" y2="0.516" gradientUnits="objectBoundingBox"><stop offset="0" stop-color="#fdf53f"/><stop offset="1" stop-color="#d93c65"/></linearGradient><linearGradient id="v" x1="0.878" y1="-0.071" x2="-1.173" y2="3.028" xlink:href="#u"/><linearGradient id="w" x1="0.744" y1="0.173" x2="-0.256" y2="1.208" xlink:href="#u"/><linearGradient id="x" x1="-0.184" y1="1.294" x2="0.486" y2="0.516" xlink:href="#u"/><linearGradient id="y" x1="0.878" y1="-0.071" x2="-1.173" y2="3.028" xlink:href="#u"/><linearGradient id="z" x1="1.304" y1="-0.302" x2="-1.589" y2="2.559" xlink:href="#u"/><linearGradient id="aa" x1="0.5" y1="0" x2="0.5" y2="1" xlink:href="#e"/><linearGradient id="ab" x1="0.5" y1="0" x2="0.5" y2="1" xlink:href="#o"/><linearGradient id="ae" x1="-13.843" y1="0.124" x2="-15.171" y2="2.916" gradientUnits="objectBoundingBox"><stop offset="0" stop-color="#2b3582"/><stop offset="1" stop-color="#150e42"/></linearGradient><linearGradient id="af" x1="-14.104" y1="0.5" x2="-13.104" y2="0.5" xlink:href="#d"/><linearGradient id="ag" x1="-17.022" y1="-0.4" x2="-17.497" y2="0.481" xlink:href="#ae"/><linearGradient id="ah" x1="-38.754" y1="0.5" x2="-37.754" y2="0.5" gradientUnits="objectBoundingBox"><stop offset="0" stop-color="#f9b776"/><stop offset="1" stop-color="#f47960"/></linearGradient><linearGradient id="ai" x1="-42.825" y1="0.5" x2="-41.827" y2="0.5" xlink:href="#ah"/><linearGradient id="aj" x1="0.731" y1="0.63" x2="0.164" y2="-0.007" gradientUnits="objectBoundingBox"><stop offset="0" stop-color="#2b3582"/><stop offset="0.23" stop-color="#252a70"/><stop offset="0.73" stop-color="#19164f"/><stop offset="1" stop-color="#150e42"/></linearGradient><linearGradient id="ak" x1="-6.927" y1="0.936" x2="-6.887" y2="0.084" xlink:href="#ae"/><linearGradient id="al" x1="2.289" y1="-0.432" x2="0.027" y2="0.85" xlink:href="#ah"/><linearGradient id="am" x1="-187.827" y1="53.644" x2="-190.688" y2="61.844" xlink:href="#ah"/><linearGradient id="an" x1="-241.308" y1="36.49" x2="-244.999" y2="41.974" xlink:href="#ah"/><linearGradient id="ao" x1="1.43" y1="0.107" x2="-0.207" y2="0.864" xlink:href="#ah"/><linearGradient id="ap" x1="1.315" y1="-0.07" x2="-1.637" y2="1.84" xlink:href="#ah"/><linearGradient id="aq" x1="3.907" y1="-2.876" x2="-0.247" y2="1.254" xlink:href="#ah"/><linearGradient id="ar" x1="-274.689" y1="50.191" x2="-275.447" y2="53.035" xlink:href="#ah"/><linearGradient id="as" x1="-4.949" y1="45.696" x2="-1.075" y2="46.587" gradientUnits="objectBoundingBox"><stop offset="0" stop-color="#f9b776"/><stop offset="0.71" stop-color="#f58b66"/><stop offset="1" stop-color="#f47960"/></linearGradient><linearGradient id="at" x1="-183.835" y1="-89.793" x2="-182.794" y2="-89.793" xlink:href="#ae"/><linearGradient id="au" x1="-830.49" y1="-398.137" x2="-827.36" y2="-400.455" xlink:href="#ah"/><linearGradient id="av" x1="1.878" y1="36.072" x2="4.292" y2="38.078" xlink:href="#ah"/><linearGradient id="aw" x1="1.081" y1="66.344" x2="2.679" y2="69.425" xlink:href="#ah"/><linearGradient id="ax" x1="1.003" y1="0.192" x2="-2.047" y2="1.74" xlink:href="#ah"/><linearGradient id="ay" x1="0" y1="0.5" x2="1" y2="0.5" xlink:href="#d"/><linearGradient id="az" x1="-0.001" y1="0.5" x2="1" y2="0.5" xlink:href="#d"/><linearGradient id="ba" x1="0" y1="0.5" x2="1" y2="0.5" xlink:href="#d"/><linearGradient id="bb" x1="0" y1="0.499" x2="1" y2="0.499" xlink:href="#d"/><linearGradient id="bc" x1="0" y1="0.5" x2="1" y2="0.5" xlink:href="#d"/><linearGradient id="bd" x1="0" y1="0.5" x2="0.999" y2="0.5" xlink:href="#d"/><linearGradient id="be" x1="0" y1="0.5" x2="1" y2="0.5" xlink:href="#d"/><linearGradient id="bf" x1="0.001" y1="0.5" x2="0.991" y2="0.5" xlink:href="#d"/><linearGradient id="bh" x1="-0.015" y1="0.5" x2="1" y2="0.5" xlink:href="#d"/><linearGradient id="bi" x1="0.299" y1="0.499" x2="2.146" y2="0.499" xlink:href="#d"/><linearGradient id="bj" x1="0" y1="0.502" x2="1.01" y2="0.502" xlink:href="#d"/><linearGradient id="bk" x1="-34.654" y1="0.501" x2="1.16" y2="0.501" xlink:href="#d"/><linearGradient id="bl" y1="0.5" x2="1" y2="0.5" gradientUnits="objectBoundingBox"><stop offset="0" stop-color="#9cfffb"/><stop offset="1" stop-color="#9bfffa"/></linearGradient><linearGradient id="bm" x1="0" y1="0.5" x2="1" y2="0.5" xlink:href="#bl"/><linearGradient id="bn" x1="0" y1="0.5" x2="1" y2="0.5" xlink:href="#bl"/><linearGradient id="bo" x1="0" y1="0.5" x2="1" y2="0.5" xlink:href="#bl"/><linearGradient id="bp" x1="0" y1="0.499" x2="1" y2="0.499" xlink:href="#bl"/><linearGradient id="bq" x1="0" y1="0.499" x2="1" y2="0.499" xlink:href="#bl"/><linearGradient id="br" x1="0" y1="0.501" x2="1" y2="0.501" xlink:href="#bl"/><linearGradient id="bs" x1="0" y1="0.501" x2="1" y2="0.501" xlink:href="#bl"/><linearGradient id="bt" x1="0" y1="0.499" x2="1" y2="0.499" xlink:href="#bl"/><linearGradient id="bv" x1="0" y1="0.5" x2="1" y2="0.5" xlink:href="#ae"/><linearGradient id="bw" x1="0" y1="0.5" x2="1" y2="0.5" xlink:href="#ah"/><linearGradient id="bx" x1="0" y1="0.5" x2="1.001" y2="0.5" xlink:href="#ae"/><linearGradient id="by" x1="0" y1="0.5" x2="1.001" y2="0.5" xlink:href="#ah"/><linearGradient id="bz" x1="0" y1="0.5" x2="1" y2="0.5" xlink:href="#ae"/><linearGradient id="ca" x1="0.736" y1="-2.551" x2="0.489" y2="0.456" xlink:href="#d"/><linearGradient id="cb" x1="0" y1="0.5" x2="1" y2="0.5" xlink:href="#ah"/><linearGradient id="cc" x1="0.064" y1="0.268" x2="0.847" y2="0.91" xlink:href="#d"/><linearGradient id="cd" x1="1.838" y1="-1.615" x2="-0.446" y2="1.548" xlink:href="#ah"/><linearGradient id="ce" x1="1.135" y1="-2.797" x2="-0.705" y2="5.665" xlink:href="#ah"/><linearGradient id="cf" x1="1.696" y1="-1.142" x2="-0.953" y2="2.815" xlink:href="#ah"/><linearGradient id="cg" x1="-123.397" y1="0.35" x2="-124.51" y2="1.106" xlink:href="#ah"/><linearGradient id="ch" x1="-89.588" y1="0.152" x2="-88.839" y2="1.129" xlink:href="#ae"/><linearGradient id="ci" x1="-504.561" y1="-0.685" x2="-509.105" y2="1.784" xlink:href="#ah"/></defs><g transform="translate(-1104.633 -1645.5)"><g transform="translate(27.87 109.669)"><g transform="translate(1076.763 1535.831)"><g transform="translate(0 0)"><g transform="translate(11.535 26.617)"><path class="a" d="M357.812,253.91c-1.719-8.511,7.076-21.442,25.656-12.184.152-4.108,21.316-18.595,33.8,7.2,1.229-6.606,17.612-4.689,21.408,5.99,5.821-3.186,21.514,9.133,2.412,13.063-24.381,5.008-80.87,8.777-92.2-5.156S357.812,253.91,357.812,253.91Z" transform="translate(-345.447 -233.956)"/><path class="b" d="M749.55,353.272c-.945-4.7,3.91-11.851,14.18-6.732.083-2.272,11.782-10.278,18.675,3.976.679-3.65,9.74-2.593,11.831,3.312,3.228-1.765,11.894,5.053,1.344,7.222-13.464,2.764-44.689,4.85-50.96-2.865S749.55,353.272,749.55,353.272Z" transform="translate(-628.908 -311.223)"/></g><g transform="translate(288.197 0)"><g transform="translate(16.472 4.334)"><path class="c" d="M1476.269,156.178c-17.337-.135-34.826,2.613-50.3,9.032-36.015,14.945-66.581,54.483-54.621,94.873,3.887,13.12,1.845,27.593,14.916,33.3,7.07,3.085,26.329,4.922,33.651,2.489,19.463-6.463,32.256-24.146,21.672-43.758-3.392-6.279-7.778-12.017-10.705-18.526s-4.26-14.235-1.278-20.717c5.858-12.728,25.318-16.773,37.937-16.392a44.162,44.162,0,0,1,36.407,20.457c9.989,15.756,12.519,34.909,11.058,53.191-1.564,19.563-9.814,34.5-22.175,49.51-10.642,12.923-22.365,25.324-29.438,40.5-6.494,13.928-8.617,29.36-8.909,44.6-.057,2.954-14.744,30.79-14.681,39.292,0,1.2,16.658,5.179,17.858,5.194l30.56.341a2.435,2.435,0,0,0,2.466-2.4c.464-41.369,13.178-80.81,45.4-108.594,11.719-10.109,24.35-18.334,33.457-31.1,12.991-18.188,19.4-36.095,17.549-58.534-1.687-20.5-8.439-41.011-21.8-56.918-14.361-17.1-35.382-27.77-57.231-32.371A161.2,161.2,0,0,0,1476.269,156.178Z" transform="translate(-1368.716 -156.174)"/><path class="d" d="M1694.809,1259.873c0,19.025-10.545,35.854-29.569,35.854-4.108,0-18.085.037-21.74-1.28-13.26-4.793-13.309-14.979-13.309-29.9,0-19.022,6.422-37.731,25.447-37.731S1694.809,1240.848,1694.809,1259.873Z" transform="translate(-1555.286 -920.114)"/></g><path class="e" d="M1418.766,141.048c-17.337-.137-34.823,2.613-50.3,9.032-36.015,14.942-66.578,54.483-54.618,94.87,3.885,13.12,12.868,29.635,25.94,35.339,7.073,3.085,15.306,2.865,22.631.45,19.46-6.463,32.253-24.146,21.668-43.758-3.389-6.282-7.778-12.017-10.7-18.526s-4.263-14.235-1.278-20.72c5.858-12.725,25.318-16.77,37.937-16.389a44.151,44.151,0,0,1,36.4,20.457c9.989,15.756,12.521,34.906,11.058,53.191-1.564,19.563-9.812,34.5-22.175,49.51-10.643,12.92-22.362,25.324-29.438,40.5-6.494,13.928-8.614,29.363-8.909,44.6-.057,2.953.94,33.8,1,42.3a2.2,2.2,0,0,0,2.177,2.186l30.557.341a2.438,2.438,0,0,0,2.466-2.4c.467-41.369,13.177-80.81,45.4-108.594,11.722-10.109,24.35-18.334,33.46-31.1,12.989-18.188,19.4-36.1,17.549-58.531-1.69-20.5-8.439-41.014-21.8-56.918-14.363-17.1-35.385-27.77-57.231-32.371A161.231,161.231,0,0,0,1418.766,141.048Z" transform="translate(-1311.215 -141.043)"/><circle class="f" cx="34.445" cy="34.445" r="34.445" transform="translate(74.904 309.992)"/><path class="g" d="M1356.254,267.5a.258.258,0,0,1-.249-.2c-2.406-10.863-2.762-27.882,9.227-47.244,11.708-18.907,28.128-31.566,48.806-37.61,22.118-6.466,48.385-5.079,78.071,4.119a.258.258,0,1,1-.152.49c-57.188-17.718-102.037-5.9-126.29,33.27-11.894,19.216-11.548,36.1-9.167,46.866a.261.261,0,0,1-.195.306Z" transform="translate(-1342.216 -167.728)"/><path class="g" d="M1372.812,525.525a.252.252,0,0,1-.206-.1,44.816,44.816,0,0,1-4.87-9.571.258.258,0,1,1,.481-.183,44.646,44.646,0,0,0,4.807,9.453.258.258,0,0,1-.057.358A.246.246,0,0,1,1372.812,525.525Z" transform="translate(-1351.529 -408.222)"/><path class="g" d="M1703.812,1256.7a.235.235,0,0,1-.115-.029,25.008,25.008,0,0,0-11.41-2.716.258.258,0,1,1,0-.516,25.5,25.5,0,0,1,11.642,2.776.252.252,0,0,1,.112.344A.258.258,0,0,1,1703.812,1256.7Z" transform="translate(-1582.939 -934.773)"/><path class="g" d="M1614.486,1308.163a.243.243,0,0,1-.143-.046,25.782,25.782,0,0,1,2.226-44.082.256.256,0,1,1,.241.453,25.267,25.267,0,0,0-2.18,43.205.255.255,0,0,1,.069.355A.252.252,0,0,1,1614.486,1308.163Z" transform="translate(-1519.403 -942.312)"/></g><g transform="translate(0 11.827)"><path class="h" d="M1028.113,554.341H994.27l15.2-372.011,2.1.261Z" transform="translate(-796.868 -182.33)"/><rect class="i" width="158.497" height="15.885" transform="translate(134.843 324.354)"/><rect class="j" width="186.648" height="15.885" transform="translate(121.379 340.239)"/><rect class="k" width="214.8" height="15.885" transform="translate(106.692 356.126)"/><rect class="l" width="251.067" height="6.297" transform="translate(94.929 82.274)"/><path class="m" d="M379.411,568.233l-1.071-.8,78.192-104.34L515.521,567.5l-1.166.659L456.374,465.534Z" transform="translate(-357.382 -382.661)"/><circle class="n" cx="8.351" cy="8.351" r="8.351" transform="translate(87.261 84.28) rotate(-45)"/><path class="o" d="M1229.614,576.02l-1.074-.8,78.192-104.337,58.99,104.409-1.166.659-57.981-102.624Z" transform="translate(-964.027 -388.22)"/><circle class="p" cx="24.161" cy="24.161" r="24.161" transform="translate(189.779 65.054)"/><circle class="q" cx="8.351" cy="8.351" r="8.351" transform="translate(328.791 84.764) rotate(-45)"/><g transform="translate(0 58.263)"><circle class="r" cx="63.098" cy="63.098" r="63.098" transform="translate(0 89.234) rotate(-45)"/><circle class="s" cx="61.001" cy="61.001" r="61.001" transform="translate(2.966 89.234) rotate(-45)"/><path class="t" d="M440.416,531.212a.264.264,0,0,1-.12-.029.269.269,0,0,1-.117-.361,56.686,56.686,0,0,1,60.731-30.2.266.266,0,0,1,.215.312.263.263,0,0,1-.309.215,56.768,56.768,0,0,0-10.112-.908,55.807,55.807,0,0,0-50.06,30.824A.287.287,0,0,1,440.416,531.212Z" transform="translate(-401.485 -467.05)"/><circle class="u" cx="51.63" cy="51.63" r="51.63" transform="translate(17.544 90.563) rotate(-45)"/><path class="v" d="M581.821,612.33c-2.618-2.435-6.219-3.9-10.651-4.4a.037.037,0,0,1-.034-.04V607.8a.04.04,0,0,1,.029-.04,15.222,15.222,0,0,0,7.735-4.71,10.911,10.911,0,0,0,3.461-7.915c0-4.157-1.939-7.379-5.641-9.668-3.137-1.934-6.726-3.045-11.9-3.346a.653.653,0,0,1-.616-.65V571.159a.653.653,0,0,0-.653-.653H558.8a.653.653,0,0,0-.653.653v10.427a.653.653,0,0,1-.653.653h-5.443a.653.653,0,0,1-.653-.653V571.153a.653.653,0,0,0-.653-.653h-4.755a.653.653,0,0,0-.653.653v10.433a.653.653,0,0,1-.653.653H530.873a.653.653,0,0,0-.653.653v5.277a.653.653,0,0,0,.653.653h7.766a.653.653,0,0,1,.653.653v40.679a.653.653,0,0,1-.653.653h-7.766a.653.653,0,0,0-.653.653v5.987a.653.653,0,0,0,.653.653h13.814a.656.656,0,0,1,.653.656v10.788a.653.653,0,0,0,.653.653h4.744a.653.653,0,0,0,.653-.653V638.754a.656.656,0,0,1,.653-.656h5.443a.656.656,0,0,1,.653.656v10.788a.653.653,0,0,0,.665.653h4.744a.653.653,0,0,0,.653-.653V638.559a.65.65,0,0,1,.619-.653c6.125-.238,11.21-1.719,14.9-4.466a14.358,14.358,0,0,0,6.05-12.184A11.7,11.7,0,0,0,581.821,612.33ZM558.678,591.49c6.772,0,10.158,1.968,10.158,6.073a6.186,6.186,0,0,1-2.475,5.2,10.916,10.916,0,0,1-6.778,1.891h-7.54a.653.653,0,0,1-.653-.653v-11.86a.653.653,0,0,1,.653-.653Zm9.88,35.428A12.473,12.473,0,0,1,561,629.025h-8.961a.653.653,0,0,1-.653-.653V614.736a.653.653,0,0,1,.653-.653H561.1c3.211,0,5.715.573,7.508,1.833a6.44,6.44,0,0,1,2.693,5.46A6.553,6.553,0,0,1,568.558,626.917Z" transform="translate(-465.754 -517.565)"/></g><g transform="translate(242.95 57.767)"><circle class="w" cx="65.335" cy="65.335" r="65.335" transform="translate(0 92.398) rotate(-45)"/><circle class="x" cx="63.163" cy="63.163" r="63.163" transform="translate(3.071 92.398) rotate(-45)"/><path class="t" d="M1293.336,534.644a.264.264,0,0,1-.12-.029.269.269,0,0,1-.117-.361,58.672,58.672,0,0,1,62.888-31.262.264.264,0,0,1,.215.309.269.269,0,0,1-.309.218,58.39,58.39,0,0,0-10.473-.942,57.789,57.789,0,0,0-51.851,31.921A.287.287,0,0,1,1293.336,534.644Z" transform="translate(-1253.021 -468.218)"/><circle class="u" cx="53.461" cy="53.461" r="53.461" transform="translate(18.169 93.771) rotate(-45)"/><path class="y" d="M1416.685,656.811V651a47.535,47.535,0,0,1-16.329-3.538,3.363,3.363,0,0,1-1.859-3.976l1.475-5.417a3.392,3.392,0,0,1,4.6-2.217,39.443,39.443,0,0,0,15.068,3.171c5.841,0,10.2-1.979,10.2-6.039,0-3.661-3.366-5.838-11.482-8.021-11.582-3.168-19.9-8.216-19.9-18.411,0-9.2,6.732-16.231,18.411-18.113v-5.815a3.386,3.386,0,0,1,3.389-3.389h3.417a3.389,3.389,0,0,1,3.389,3.389v5.222a43.262,43.262,0,0,1,12.934,2.32,3.377,3.377,0,0,1,2.108,4.074l-1.36,5.01a3.377,3.377,0,0,1-4.46,2.292,35.284,35.284,0,0,0-12.688-2.292c-6.927,0-8.906,2.865-8.906,5.443,0,3.165,4.157,5.343,13.163,8.116,12.868,3.859,18.214,9.2,18.214,18.807,0,8.809-6.534,16.727-19.193,18.706v6.509a3.389,3.389,0,0,1-3.389,3.389h-3.418a3.386,3.386,0,0,1-3.389-3.4Z" transform="translate(-1328.157 -523.298)"/></g><path class="z" d="M1298.422,904.543a68.034,68.034,0,0,0,68.031-68.033H1230.38A68.049,68.049,0,0,0,1298.422,904.543Z" transform="translate(-965.34 -649.108)"/><rect class="aa" width="148.353" height="10.359" rx="5.179" transform="translate(258.073 180.395)"/><path class="z" d="M448.219,896.751a68.032,68.032,0,0,0,68.033-68.031H380.18A68.044,68.044,0,0,0,448.219,896.751Z" transform="translate(-358.695 -643.55)"/><rect class="aa" width="148.353" height="10.359" rx="5.179" transform="translate(14.518 178.163)"/></g><g transform="translate(266.395 15.425)"><g transform="translate(30.975 61.909)"><path class="ab" d="M1362.088,641.379c2.206-1.023,8.457-5.4,9.508-5.589s2.882,1.043,2.882,1.043a2.851,2.851,0,0,1-.032,2.194c-1.467,1.776-4.724,5.156-9.1,6.42a7.624,7.624,0,0,1-6.875-.948A9.278,9.278,0,0,1,1362.088,641.379Z" transform="translate(-1354.105 -571.38)"/><path class="ac" d="M1363.758,653.56c4.377-1.26,7.634-4.644,9.1-6.42a8.831,8.831,0,0,1-2.644,3.578c-3.925,3.529-11.424,4.8-13.02,4.555-1.277-.195-1.146-1.375-.315-2.661A7.633,7.633,0,0,0,1363.758,653.56Z" transform="translate(-1352.518 -579.493)"/><path class="ad" d="M1372.814,618.136s-10.026,7.233-8.308,12.095c0,0,10.98-4.738,12.318-8.471s-.223-5.38-.223-5.38Z" transform="translate(-1358.271 -557.545)"/><path class="ae" d="M1388.153,601.35l1.641,4.744a1.65,1.65,0,0,1-.639,1.937,4.335,4.335,0,0,1-1.358.524,1.919,1.919,0,0,1-2.125-.965l-1.962-3.7Z" transform="translate(-1372.115 -546.821)"/><path class="af" d="M1406.4,624.283a16.429,16.429,0,0,1-2.005,3.864,1.888,1.888,0,0,1-1.6.9,4.87,4.87,0,0,1-1.326-.161,1.229,1.229,0,0,1-.825-1.53l1.432-4.847Z" transform="translate(-1384.158 -561.919)"/><path class="ag" d="M1379.056,413.784a22.165,22.165,0,0,0-4.841,7.772,2.721,2.721,0,0,1-2.025,1.888c-6.073,1.338-19.66,4.893-26.4,11.124-8.843,8.167,8.116,34.224,8.116,34.224s2.779-.017,6.145-2.9c0,0-10.055-19.6-1.389-25.312a49.575,49.575,0,0,1,10.253-5.076l12.662-2.111,8-22.39S1381.365,411.879,1379.056,413.784Z" transform="translate(-1343.234 -411)"/><path class="ah" d="M1435.053,421.161s7.2,13.57.994,18.377c-4.652,3.607-15.5,7.9-17.938,15.329s-6.589,21.823-12.121,26.928c0,0-3.893-.378-5.348-1.928,0,0,3.151-21.514,5.237-27.034,1.8-4.778,4.458-11.679,9.545-15.535a10.035,10.035,0,0,0,3.684-5.366l2.73-11.212Z" transform="translate(-1384.195 -417.936)"/></g><g transform="translate(0 18.314)"><g transform="translate(0 7.469)"><g transform="translate(8.152)"><path class="ai" d="M1320.216,308.016c10.6-2.088,14.9-10.788,18.406-16.389,4.635-7.4,10.545-6.718,10.545-6.718l-2.186,15.6c-6.812,13.369-18.122,14.985-25.891,14.22A13.584,13.584,0,0,1,1320.216,308.016Z" transform="translate(-1303.915 -284.893)"/><path class="aj" d="M1263.571,362.31l3.982.6a31.014,31.014,0,0,0,12.318.341,13.587,13.587,0,0,0,.86,6.715,32.819,32.819,0,0,1-8.457-1.936C1263.118,366.232,1263.571,362.31,1263.571,362.31Z" transform="translate(-1263.567 -340.132)"/></g><path class="ak" d="M1235.112,365.891a2.619,2.619,0,0,1,.877-2.088l5.8-5.156s-.209-.905-1.954-.948a2.173,2.173,0,0,1-2.005-1.888s2.435.206,6.047.624a7.713,7.713,0,0,1,4.529,2.383l-.922,2.919a32.91,32.91,0,0,1-12.318,5.526Z" transform="translate(-1235.109 -335.495)"/></g><path class="al" d="M1411.561,269.85c-.344.026-3.266-1.455-3.612-1.4-5.655.825-20.136,1.839-26.739,11.444.043.195.083.352.118.478a5.04,5.04,0,0,0-.149.753,31.655,31.655,0,0,1-1.378,5.706,3.214,3.214,0,0,1,.92.662c3.724,3.827,18.088,19.256,20.523,30.893a1.114,1.114,0,0,0,1.3.877c3.283-.65,12.986-2.822,17.119-6.483a.782.782,0,0,0,.215-.859,86.587,86.587,0,0,1-4.555-24.888,13.4,13.4,0,0,0-.132-1.432l.221.223Z" transform="translate(-1338.35 -265.688)"/><path class="am" d="M1458.32,262.4c10.147-2.7,14.169,2.24,19.812-3.584l2.452,11.009c-1.567,3.678-4.566,6.741-9.144,9.124Z" transform="translate(-1394.377 -258.82)"/><path class="an" d="M1489.949,284.71c-.748-5.973-4.535-11.7-4.584-11.76l-.475.318c.037.057,3.75,5.675,4.477,11.513Z" transform="translate(-1413.336 -268.902)"/></g><g transform="translate(39.059 3.079)"><path class="ao" d="M1410.549,246.06a27.458,27.458,0,0,1,6.085,9.121c-.318.264-4.011,5.323-8.405,3.183-.08-2.484-1.364-5.821-2.739-9.224Z" transform="translate(-1395.74 -234.481)"/><path class="ap" d="M1381.6,222.009c-.04.183,1.493,12.5,1.493,12.5l7.013-1.026.286-11.886S1382.286,218.947,1381.6,222.009Z" transform="translate(-1378.692 -216.265)"/><path class="aq" d="M1380.96,212.772a1.02,1.02,0,0,1,.436.785l.338,6.176a.909.909,0,0,1-.023.286c-.115.5-.613,2.08-2.226,1.484a9.015,9.015,0,0,0-3.607-.839,1.014,1.014,0,0,0-.882,1.146,37.938,37.938,0,0,0,1.091,5.5,1.008,1.008,0,0,0,1.186.7,27.894,27.894,0,0,0,6.059-1.948,1.014,1.014,0,0,0,.573-.879c.06-1.65.243-6.282.5-7.583.235-1.206,1.75-1.836,2.467-2.071a1.025,1.025,0,0,0,.616-.544,2.245,2.245,0,0,0-1.215-3.3,1.017,1.017,0,0,1-.516-1.321,2.253,2.253,0,0,0-1.074-3.131,3.192,3.192,0,0,0-3.79.536,1.063,1.063,0,0,1-1.266.109.673.673,0,0,0-.667-.046.988.988,0,0,1-1.312-.513,2.6,2.6,0,0,0-2.865-1.659c-3.128.286-3.744,3.684-3.082,5.752s4.033,1.561,5.772.679C1378.728,211.429,1380.244,212.277,1380.96,212.772Z" transform="translate(-1371.457 -205.639)"/><path class="ar" d="M1415.383,243.736s-.644-3.844.728-4.612,3.266-.169,2.641,2.372C1417.976,244.652,1415.383,243.736,1415.383,243.736Z" transform="translate(-1402.692 -229.309)"/></g><g transform="translate(43.781)"><path class="as" d="M1391.7,195.039a4.5,4.5,0,0,0-1.052.478,5.76,5.76,0,0,0-2.031,2.085c-.152.272-.616,2.292-.679,2.32,2.005-.965,3.948-2.312,5.976-.659,1.785,1.458,1.544,3.793,2.578,5.666a5.256,5.256,0,0,0,2.693,2.406c.475.12,3.707-.455,3.687-1.057l-.1-3.057c-.094-2.753-4.472-5.875-6.569-7.024C1394.589,195.311,1393.288,194.561,1391.7,195.039Z" transform="translate(-1387.94 -194.89)"/><g transform="translate(9.671 7.909)"><path class="at" d="M1421.7,225.711l3.993.49a31.137,31.137,0,0,1,11.954,2.985,13.641,13.641,0,0,1,2.65-6.231,50.511,50.511,0,0,0-8.666-.41C1421.6,222.05,1421.7,225.711,1421.7,225.711Z" transform="translate(-1421.7 -222.499)"/><path class="au" d="M1477.37,230.321c9.654,4.87,6.285,1.865,8.5,8.093.828,2.32,5.924,10.516,5.924,10.516,18.514-16.933-4.088-23.49-11.777-24.84A13.64,13.64,0,0,0,1477.37,230.321Z" transform="translate(-1461.422 -223.634)"/></g></g></g><g transform="translate(98.422 141.066)"><g transform="translate(69.077)"><path class="av" d="M997.184,713h-93.99a7.382,7.382,0,0,1-7.351-6.7l-5.924-62.845a7.382,7.382,0,0,1,7.21-8.076l99.929-1.905a7.385,7.385,0,0,1,7.525,7.385V705.6a7.388,7.388,0,0,1-7.4,7.394Z" transform="translate(-889.886 -633.475)"/><path class="aw" d="M910.966,667.606l4.2,54.346a4.584,4.584,0,0,0,4.506,4.214l90.212.945a4.566,4.566,0,0,0,4.615-4.566V664.037a4.566,4.566,0,0,0-4.724-4.563l-94.42,3.217a4.566,4.566,0,0,0-4.389,4.916Z" transform="translate(-904.917 -652.024)"/><path class="ax" d="M1076.943,682.35l50.871-1.521a.922.922,0,0,1,.954.922v.819a.925.925,0,0,1-.914.925l-50.871.7a.925.925,0,0,1-.04-1.848Z" transform="translate(-1022.745 -667.263)"/><rect class="ay" width="52.722" height="2.2" rx="1.1" transform="translate(53.302 19.349)"/><path class="az" d="M1129.85,716.459v.155a.925.925,0,0,0,.925.925h35.43a.925.925,0,0,0,.925-.925v-.722a.922.922,0,0,0-.94-.922l-35.439.582A.923.923,0,0,0,1129.85,716.459Z" transform="translate(-1061.108 -691.624)"/><path class="ba" d="M1032.059,748.807a.4.4,0,0,1-.252-.089L1016.535,736.3l-15.054,11.023a.4.4,0,0,1-.541-.066L980,722.14c-2.38,2.088-17.807,15.615-19.861,17.411a.4.4,0,1,1-.527-.6c2.226-1.948,20.17-17.681,20.17-17.681a.406.406,0,0,1,.286-.1.4.4,0,0,1,.286.143l20.961,25.149,15-10.986a.4.4,0,0,1,.49,0l15.249,12.387,8.164-7.136a.4.4,0,1,1,.524.6l-8.416,7.357A.4.4,0,0,1,1032.059,748.807Z" transform="translate(-939.522 -696.047)"/><path class="bb" d="M1031.766,775.152a.266.266,0,0,1-.266-.266v-.8a.266.266,0,0,1,.533,0v.8a.263.263,0,0,1-.266.266Zm0-2.664a.266.266,0,0,1-.266-.266v-.8a.266.266,0,0,1,.533,0v.8A.266.266,0,0,1,1031.766,772.488Zm0-2.667a.266.266,0,0,1-.266-.266v-.8a.266.266,0,0,1,.533,0v.8A.266.266,0,0,1,1031.766,769.821Zm0-2.667a.266.266,0,0,1-.266-.266v-.8a.266.266,0,1,1,.533,0v.814A.264.264,0,0,1,1031.766,767.154Zm0-2.664a.269.269,0,0,1-.266-.269v-.8a.266.266,0,1,1,.533,0v.8a.267.267,0,0,1-.266.269Zm0-2.667a.266.266,0,0,1-.266-.266v-.8a.266.266,0,1,1,.533,0v.8A.266.266,0,0,1,1031.766,761.823Zm0-2.667a.266.266,0,0,1-.266-.266v-.8a.266.266,0,1,1,.533,0v.791a.266.266,0,0,1-.266.286Zm0-2.667a.267.267,0,0,1-.266-.266v-.8a.266.266,0,1,1,.533,0v.8a.264.264,0,0,1-.266.266Zm0-2.664a.266.266,0,0,1-.266-.266v-.8a.266.266,0,0,1,.533,0v.8A.266.266,0,0,1,1031.766,753.824Zm0-2.667a.267.267,0,0,1-.266-.266v-.8a.266.266,0,1,1,.533,0v.8a.266.266,0,0,1-.266.255Zm0-2.667a.266.266,0,0,1-.266-.266v-.8a.266.266,0,0,1,.533,0v.8a.264.264,0,0,1-.266.269Zm0-2.667a.266.266,0,0,1-.266-.266v-.8a.266.266,0,0,1,.533,0v.8a.264.264,0,0,1-.266.266Zm0-2.664a.266.266,0,0,1-.266-.266v-.8a.266.266,0,0,1,.533,0v.8A.266.266,0,0,1,1031.766,743.159Zm0-2.667a.266.266,0,0,1-.266-.266v-.8a.266.266,0,0,1,.533,0v.8A.266.266,0,0,1,1031.766,740.492Z" transform="translate(-990.932 -708.885)"/><path class="bc" d="M1104.686,829.994a.266.266,0,0,1-.266-.266v-.8a.266.266,0,0,1,.533,0v.8a.266.266,0,0,1-.266.266Zm0-2.667a.267.267,0,0,1-.266-.266v-.8a.266.266,0,0,1,.533,0v.8a.266.266,0,0,1-.266.266Zm0-2.667a.264.264,0,0,1-.266-.266v-.8a.266.266,0,0,1,.533,0v.808a.266.266,0,0,1-.266.258Zm0-2.667a.264.264,0,0,1-.266-.267v-.8a.266.266,0,0,1,.533,0v.8a.267.267,0,0,1-.266.267Zm0-2.664a.266.266,0,0,1-.266-.266v-.8a.266.266,0,0,1,.533,0v.8a.266.266,0,0,1-.266.266Zm0-2.667a.266.266,0,0,1-.266-.266v-.8a.266.266,0,0,1,.533,0v.8a.267.267,0,0,1-.266.272Z" transform="translate(-1042.962 -763.235)"/><path class="bd" d="M1158.175,805.212a.263.263,0,0,1-.266-.258l-.026-.8a.269.269,0,0,1,.258-.286.258.258,0,0,1,.286.258l.026.8a.267.267,0,0,1-.258.286Zm-.083-2.664a.266.266,0,0,1-.266-.258l-.026-.8a.266.266,0,1,1,.533-.017l.026.8a.269.269,0,0,1-.258.286Zm-.083-2.664a.266.266,0,0,1-.266-.258l-.026-.8a.267.267,0,0,1,.258-.286.263.263,0,0,1,.286.258l.026.8a.269.269,0,0,1-.258.286Zm-.083-2.667a.267.267,0,0,1-.266-.258l-.026-.8a.269.269,0,0,1,.258-.286.258.258,0,0,1,.286.258l.026.8a.264.264,0,0,1-.258.287Zm-.083-2.664a.269.269,0,0,1-.266-.258l-.026-.8a.269.269,0,0,1,.261-.286.263.263,0,0,1,.287.258l.023.8a.264.264,0,0,1-.258.286Zm-.083-2.664a.27.27,0,0,1-.267-.258l-.023-.8a.273.273,0,1,1,.544-.029l.023.8a.266.266,0,0,1-.258.287Zm-.083-2.664a.269.269,0,0,1-.266-.261l-.023-.8a.266.266,0,1,1,.533,0l.023.8a.266.266,0,0,1-.258.286Zm-.08-2.667a.264.264,0,0,1-.266-.258l-.026-.8a.269.269,0,0,1,.258-.286.263.263,0,0,1,.286.258l.026.8a.267.267,0,0,1-.261.287Zm-.083-2.664a.266.266,0,0,1-.266-.258l-.026-.8a.263.263,0,0,1,.258-.286.261.261,0,0,1,.287.258l.026.8a.269.269,0,0,1-.258.287Zm-.083-2.664a.266.266,0,0,1-.266-.258l-.026-.8a.266.266,0,0,1,.258-.286.255.255,0,0,1,.286.258l.026.8a.269.269,0,0,1-.258.286Z" transform="translate(-1080.578 -737.942)"/><path class="av" d="M1212.936,830.777a.266.266,0,0,1-.266-.266v-.8a.266.266,0,0,1,.533,0v.8a.263.263,0,0,1-.266.266Zm0-2.667a.266.266,0,0,1-.266-.266v-.8a.266.266,0,1,1,.533,0v.8a.263.263,0,0,1-.266.266Zm0-2.664a.266.266,0,0,1-.266-.266v-.8a.266.266,0,1,1,.533,0v.8A.266.266,0,0,1,1212.936,825.446Zm0-2.667a.266.266,0,0,1-.266-.266v-.8a.266.266,0,1,1,.533,0v.8a.266.266,0,0,1-.266.272Zm0-2.667a.266.266,0,0,1-.266-.266v-.8a.266.266,0,1,1,.533,0v.8a.263.263,0,0,1-.266.266Z" transform="translate(-1120.202 -765.696)"/><g transform="translate(12.953 18.556)"><path class="be" d="M942.992,751.593a.4.4,0,0,1-.4-.367l-4.3-50.754a.4.4,0,0,1,.8-.066l4.3,50.754a.4.4,0,0,1-.364.432Z" transform="translate(-937.38 -699.527)"/><path class="bf" d="M935.2,700.865l1.238-1.467,1.467,1.238-.1-1.149-1.467-1.237-1.238,1.467Z" transform="translate(-935.1 -698.25)"/></g><g transform="translate(14.969 66.496)"><path class="bg" d="M1030.563,869.736H942.505a.4.4,0,0,1,0-.8h88.058a.4.4,0,1,1,0,.8Z" transform="translate(-942.138 -867.98)"/><path class="bh" d="M1245.25,868.313l1.358-1.355-1.358-1.358h1.152l1.355,1.358-1.355,1.355Z" transform="translate(-1158.418 -865.6)"/></g></g><g transform="translate(0 136.957)"><path class="bi" d="M848.541,1227.136a1.338,1.338,0,0,1-1.352-1.023L825.822,1113a1.249,1.249,0,0,1,1.126-1.412,1.37,1.37,0,0,1,1.584,1.006L849.9,1225.7a1.249,1.249,0,0,1-1.126,1.412A1.569,1.569,0,0,1,848.541,1227.136Z" transform="translate(-775.089 -1111.564)"/><path class="bj" d="M650.119,1230.826a1.465,1.465,0,0,1-.272-.026,1.24,1.24,0,0,1-1.077-1.432l25.189-111.64a1.375,1.375,0,0,1,1.619-.96,1.241,1.241,0,0,1,1.077,1.432l-25.189,111.64A1.35,1.35,0,0,1,650.119,1230.826Z" transform="translate(-648.753 -1115.254)"/><path class="bk" d="M753.859,1207.981H717.342a1.235,1.235,0,1,1,0-2.452h36.516a1.235,1.235,0,1,1,0,2.452Z" transform="translate(-696.709 -1178.604)"/><path class="bl" d="M755.013,1207.995H719.821a1.229,1.229,0,1,1,0-2.452h35.193a1.229,1.229,0,1,1,0,2.452Z" transform="translate(-698.525 -1178.619)"/><path class="bm" d="M753.89,1279.377H717.374a1.235,1.235,0,1,1,0-2.455H753.89a1.235,1.235,0,1,1,0,2.455Z" transform="translate(-696.74 -1229.547)"/><path class="bn" d="M746.144,1279.377H701.874a1.235,1.235,0,1,1,0-2.455h44.271a1.235,1.235,0,1,1,0,2.455Z" transform="translate(-685.68 -1229.547)"/><path class="bo" d="M753.89,1350.767H717.374a1.235,1.235,0,1,1,0-2.455H753.89a1.235,1.235,0,1,1,0,2.455Z" transform="translate(-696.74 -1280.486)"/><path class="bp" d="M739.17,1350.767h-53a1.235,1.235,0,1,1,0-2.455h53a1.235,1.235,0,1,1,0,2.455Z" transform="translate(-674.478 -1280.486)"/><path class="bq" d="M721.032,1422.167H671.324a1.235,1.235,0,1,1,0-2.455h49.708a1.235,1.235,0,1,1,0,2.455Z" transform="translate(-663.882 -1331.432)"/><path class="bq" d="M731.995,1422.167H671.324a1.235,1.235,0,1,1,0-2.455h60.671a1.235,1.235,0,1,1,0,2.455Z" transform="translate(-663.882 -1331.432)"/></g><g transform="translate(21.974 45.63)"><path class="br" d="M730.791,1187.7s-.891,1.407-1.114,5.34a.639.639,0,0,0,.636.679h6.97a.409.409,0,0,0,.39-.541,11.141,11.141,0,0,0-4.4-5.841Z" transform="translate(-728.468 -1074.305)"/><path class="bs" d="M732.51,1178.375l.4,3.306a.625.625,0,0,0,.541.547,5.569,5.569,0,0,0,1.475,0,1.02,1.02,0,0,0,.842-1.014V1178Z" transform="translate(-730.491 -1067.641)"/><path class="bt" d="M790.516,1187.34a9.741,9.741,0,0,0-1.306,4.922,1.229,1.229,0,0,0,1.238,1.2h10.826a.518.518,0,0,0,.286-.942,47.518,47.518,0,0,0-8.987-5.182Z" transform="translate(-770.947 -1074.305)"/><path class="bu" d="M789.87,1170.934l.842,4.082a.839.839,0,0,0,1,.662,2.967,2.967,0,0,0,.951-.4.965.965,0,0,0,.43-.985l-.859-4.944Z" transform="translate(-771.419 -1061.468)"/><path class="bv" d="M729.027,976.75s-2.925,2.578-3.475,5.681,1.558,53.5,1.558,53.5,2.925.487,4.432-.427c0,0,1.788-32.709,3.151-40.269,0,0,7.125,33.883,9.1,40.008,0,0,2.816.341,3.724-.195,0,0-1.865-43.922-4.211-51.73Z" transform="translate(-725.46 -924.042)"/><path class="bw" d="M746.869,1019.853a.315.315,0,0,1-.287-.232l-1.209-4.646-2.578-1.656a.31.31,0,1,1,.335-.521l2.681,1.719a.3.3,0,0,1,.132.183l1.243,4.764a.312.312,0,0,1-.221.378A.282.282,0,0,1,746.869,1019.853Z" transform="translate(-737.728 -949.728)"/><path class="bx" d="M799.954,872.007c-12.318-1.023-15.524,1.527-15.524,1.527l5.913,9.333s12.095-.238,20.758-6.918a21.135,21.135,0,0,1-3.469-5.179A16.3,16.3,0,0,1,799.954,872.007Z" transform="translate(-767.537 -848.422)"/><path class="by" d="M877.021,811.106a.378.378,0,0,0-.719-.143l-1.57,3.349a3.484,3.484,0,0,0-.286,2.077l.55,1.951a3.369,3.369,0,0,1-.685,2.681,23.39,23.39,0,0,1-8.881,6.915,21.138,21.138,0,0,0,3.469,5.179,21.219,21.219,0,0,0,7.388-10.258,1.647,1.647,0,0,0,1.163-1.636Z" transform="translate(-825.333 -805.594)"/><path class="bz" d="M767.912,874.776c-4.334-4.669-12.584-6.778-17.363-7.646a4.386,4.386,0,0,0-4.9,2.782c-2.151,5.778-8,20.818-9.133,23.4-.931,2.12-1.9,4.191-2.518,5.486a1.555,1.555,0,0,0,.725,2.071,113.581,113.581,0,0,0,14.186,4.985,1.008,1.008,0,0,0,1.289-.968,3.151,3.151,0,0,1,.447-1.619l11.106-18.506c6.924,7.674,12.986,8.376,17.641,6.7a35.165,35.165,0,0,1-1.541-7.276C770.974,883,767.912,874.776,767.912,874.776Z" transform="translate(-731.445 -845.774)"/><path class="ca" d="M898.833,918.216l-1.243-1.656c-4.01,2.762-7.379,3.415-10.13,2.942A35.165,35.165,0,0,0,889,926.778C895.137,924.564,898.833,918.216,898.833,918.216Z" transform="translate(-841.052 -881.094)"/><path class="cb" d="M922.392,913.606l7,.272,6.44-3.6c-.925-.573-6.151.6-6.151.6s-5.466-.828-6.944-.828c-1.229,0-1.054,1.765-.96,2.363.02.123.034.195.034.195Z" transform="translate(-865.488 -876.457)"/><path class="cc" d="M805.893,837.37l-3.693,9.007s4.242,2.936,7.654,2.656l1.842-8.1Z" transform="translate(-780.217 -824.59)"/><g transform="translate(20.055)"><path class="cd" d="M818.963,812.73s2.292,5.242,2.435,8,.745,4.535-2.435,5.091a6.762,6.762,0,0,1-7.314-3.773s-2.275-4.222-1.765-5.953S818.963,812.73,818.963,812.73Z" transform="translate(-805.701 -807.009)"/><path class="ce" d="M802.495,805.822l.181-.08a.435.435,0,0,0,.212-.6c-.447-.859-1.323-2.865-.192-3.317,1.455-.6,7.222-1.773,8.468-3.819a3.81,3.81,0,0,0-1.458-5.228.22.22,0,0,0-.286.094l-.132.249a.215.215,0,0,1-.4-.04.215.215,0,0,0-.39-.054c-.384.61-1.415,1.6-4.177,2.114-3.925.725-6.52,2.312-6.589,5.025a.218.218,0,0,1-.335.178c-.286-.178-.753-.261-1.375.261-1.077.908-.636,3.257,1.719,5.191a.215.215,0,0,1,0,.347c-.427.286-1.066.943.573,1.828a5.6,5.6,0,0,0,3.484.759.218.218,0,0,0,.175-.261l-.527-2.383a.218.218,0,0,1,.212-.264Z" transform="translate(-795.467 -792.758)"/><path class="cf" d="M813.218,833.705s-.859-3.349-2.372-2.409.779,3.75,1.985,3.876Z" transform="translate(-806.084 -820.137)"/></g></g></g></g></g></g></g></svg>