<svg xmlns="http://www.w3.org/2000/svg" width="2040.392" height="842.369" viewBox="0 0 2040.392 842.369"><defs><style>.a{opacity:0.6;}.b{opacity:0.8;}.c{fill:#00008d;opacity:0.2;}</style></defs><g transform="translate(438 13.216)"><g transform="translate(-14 -10)"><g class="a" transform="translate(0 0)"><g class="b" transform="translate(-446.478 13.784)"><path class="c" d="M565.284,799.506C360.125,747.2,232.594,655.923,24.037,613.857,12.99,611.628-175.493,529.334-212.229,469.6c-24.117-39.236-43.727-80.277-43.98-126.683s11.6-82.553,39.7-121.848c25.127-35.168,58.958-77.045,130.8-83.343,30.237-2.642,75.957,26.016,103.878,35.8s63.169,12.418,86.542-6.993c25.885-21.487,22.011-28.717,33.03-59.061,20.242-55.676,93.813-83.4,153.15-70.63S388.2,98.62,382.445,156.407c-3.046,30.568-16.34,3.007-19.653,33.575s9.279,65.865,40.442,73.354c25.773,6.18,53.343-9.128,73.36-27.2s37.073-39.92,61.162-52.751c35.276-18.787,81.123-13.232,110.111,10.3S710.756,249,704.551,285.85s-14.206,68.4-45.089,93.238c-10.149,8.185-22.46,17.949-21.056,29.967,1,8.916,9.6,15.143,18.642,17.8,33.03,9.694,57.442-35.509,91.048-47.444,40.316-14.317,123.755,12.855,138.228,49.532,29.1,73.79-53.834,133.134-79.214,154.975C733.553,647.291,652.317,821.678,565.284,799.506Z" transform="translate(278.691 -9.69)"/><path class="c" d="M1315.786,733.5c-291.48,77.176-360.542-5.432-646.09,86.021-15.141,4.849-150.5,55.911-250.919,10.476-65.909-29.841-128.256-64.86-173.074-119.274s-65.357-104.892-69.971-170.171c-4.133-58.365,23.157-80.139,50.7-96.871,35.11-21.326,85.308-8.725,127.454-16.043s86.128-28.06,95.194-66.746c9.922-42.8-55.114-116.416-71.253-159.531C348.291,122.2,408.286,39.857,490.316,14.819s165.789,9.308,205.8,50.269C729.14,98.82,752.1,3.146,888.391,56.722c127.045,49.954-103.531,182.263,51.3,238.952,35.021,12.825,83.348,25.785,89.654-8.979s5.344-72.013,21.376-103.4c23.6-45.989,82.8-70.457,139.389-62.376s72.839,11.972,100.859,59.562,26.72,5.283,14.25,55.372c-4.115,16.462-9.156,36.246,3.937,49.475,9.691,9.817,25.776,11.314,38.958,8.336,48.1-10.91,30.461-26.5,58.552-63.259,33.721-44.1,107.486-67.509,156.223-30.589,38.566,29.2,43.767,81.337,34.825,124.213C1571.764,448.276,1439.3,700.8,1315.786,733.5Z" transform="translate(461.381 -23.322)"/></g></g></g></g></svg>