<svg xmlns="http://www.w3.org/2000/svg" xmlns:xlink="http://www.w3.org/1999/xlink" width="669.65" height="613.17" viewBox="0 0 669.65 613.17"><defs><style>.a{fill:#e4e4e4;opacity:0.09;}.b{fill:url(#a);}.c{fill:url(#b);}.d{fill:#0074ff;}.e{fill:url(#c);}.f{fill:#fff;}.g{fill:#bfbfbf;}.h{fill:#06448e;}.i{fill:url(#d);}.j{fill:url(#e);}.k{fill:url(#f);}.l{fill:url(#g);}.m{fill:url(#h);}.n{opacity:0.25;fill:url(#i);}.o{fill:#f4f7fa;}.p{fill:url(#j);}.q{fill:url(#k);}.r{fill:url(#l);}.s{fill:url(#m);}.t{fill:url(#n);}.u{opacity:0.3;fill:url(#o);}.v{fill:url(#p);}.w{fill:url(#q);}</style><linearGradient id="a" x1="0.305" y1="0.046" x2="-0.174" y2="1.72" gradientUnits="objectBoundingBox"><stop offset="0" stop-color="#fff"/><stop offset="1" stop-color="#004177"/></linearGradient><linearGradient id="b" x1="0.5" x2="0.5" y2="1" gradientUnits="objectBoundingBox"><stop offset="0" stop-color="#218be5"/><stop offset="1" stop-color="#43ed9c"/></linearGradient><linearGradient id="c" x1="-0.447" y1="0.018" x2="-0.84" y2="1.655" gradientUnits="objectBoundingBox"><stop offset="0" stop-color="#fff"/><stop offset="1" stop-color="#f4f4f4"/></linearGradient><linearGradient id="d" x1="-0.117" y1="0.126" x2="0.781" y2="0.645" gradientUnits="objectBoundingBox"><stop offset="0" stop-color="#81f7eb"/><stop offset="1" stop-color="#6165d7"/></linearGradient><linearGradient id="e" x1="0.929" y1="1.551" x2="-0.104" y2="0.508" gradientUnits="objectBoundingBox"><stop offset="0" stop-color="#40447e"/><stop offset="1" stop-color="#1c2c5a"/></linearGradient><linearGradient id="f" x1="-0.958" y1="0.486" x2="-0.586" y2="0.825" gradientUnits="objectBoundingBox"><stop offset="0" stop-color="#40447e"/><stop offset="1" stop-color="#3c3b6b"/></linearGradient><linearGradient id="g" x1="-5.164" y1="1.095" x2="-5.268" y2="4.026" gradientUnits="objectBoundingBox"><stop offset="0" stop-color="#068e5d"/><stop offset="1" stop-color="#10ad74"/></linearGradient><linearGradient id="h" x1="-5.466" y1="1.164" x2="-5.581" y2="3.002" xlink:href="#g"/><linearGradient id="i" x1="0.185" y1="0.256" x2="0.578" y2="0.625" xlink:href="#f"/><linearGradient id="j" x1="0.434" y1="0.37" x2="1.677" y2="0.907" xlink:href="#d"/><linearGradient id="k" x1="0.975" y1="-0.221" x2="0.682" y2="0.234" gradientUnits="objectBoundingBox"><stop offset="0" stop-color="#1ba581"/><stop offset="1" stop-color="#57f2c9"/></linearGradient><linearGradient id="l" y1="0.5" x2="1.668" y2="0.5" gradientUnits="objectBoundingBox"><stop offset="0" stop-color="#88e3ff"/><stop offset="1" stop-color="#fb6fbb"/></linearGradient><linearGradient id="m" x1="-2.102" y1="1.654" x2="0.316" y2="4.938" xlink:href="#g"/><linearGradient id="n" x1="-9.838" y1="0.93" x2="-1.677" y2="4.285" xlink:href="#g"/><linearGradient id="o" x1="0.334" y1="0.185" x2="2.097" y2="0.884" xlink:href="#d"/><linearGradient id="p" x1="0.269" y1="0.431" x2="1.215" y2="0.917" xlink:href="#d"/><linearGradient id="q" x1="0.78" y1="0.052" x2="-0.002" y2="1.438" xlink:href="#d"/></defs><g transform="translate(-930.62 -179.415)"><path class="a" d="M631.635,1091.52c-15.534,15.793-29.43,25.077-40.073,32.087-103.784,68.356-222.42,48.655-259.1,41.922-59.177-10.866-109.132-18.53-152.046-56.781-97.529-86.913-92.787-268.222-18.266-380.534C170.988,714.9,245.4,606.1,364.289,590.768c2.907-.377,5.081-.589,6.987-.788,18.39-1.92,132.367-12.068,225.3,64.744a274.812,274.812,0,0,1,54.566,61.068C723.723,826.38,723.953,997.647,631.635,1091.52Z" transform="translate(823.956 -380.806)"/><path class="b" d="M1371.617,746.929l-41.947-62.359c-1.906-2.824-5.033-1.34-8.257-1.482l-214.8-12.068a8.3,8.3,0,0,0-7.887,4.254l-32.485,61.989a8.256,8.256,0,0,0-.874,4.671l43.2,439.917a10.364,10.364,0,0,0,10.612,9.043l287.468-8.566a8.244,8.244,0,0,0,8.046-9.21L1373.29,751.483A9.935,9.935,0,0,0,1371.617,746.929ZM1225.469,776.1c-18.079-.487-34.208-15.227-35.947-32.919s11.588-31.507,29.684-30.861c18,.635,33.929,15.378,35.652,32.911S1243.46,776.583,1225.469,776.1Z" transform="translate(-12.849 -427.452)"/><path class="c" d="M1388.869,746.976l-41.945-62.359a10.725,10.725,0,0,0-8.279-4.772l-214.787-8.765a8.3,8.3,0,0,0-7.887,4.254l-32.481,61.976a8.274,8.274,0,0,0-.875,4.671l43.207,439.917a10.362,10.362,0,0,0,10.61,9.043l287.468-8.566a8.243,8.243,0,0,0,8.045-9.21L1390.542,751.53A9.935,9.935,0,0,0,1388.869,746.976Zm-146.144,29.167c-18.079-.487-34.208-15.227-35.947-32.919s11.588-31.507,29.684-30.861c18,.635,33.931,15.378,35.652,32.911S1260.722,776.63,1242.725,776.143Z" transform="translate(-26.448 -427.499)"/><path class="d" d="M1698.316,866.019c-18.094-.646-31.422,13.169-29.684,30.861S1686.5,929.3,1704.583,929.8c18,.487,31.111-13.339,29.39-30.87S1716.322,866.663,1698.316,866.019Zm5.458,55.57c-13.417-.377-25.375-11.321-26.663-24.442s8.586-23.381,22.02-22.915c13.375.462,25.221,11.4,26.5,24.435S1717.141,921.963,1703.775,921.589Z" transform="translate(-488.306 -581.155)"/><path class="e" d="M1591.47,683.92l7.451,75.859c2.054,20.921,21.145,38.322,42.523,38.864l7.307.184c21.211.536,36.669-15.8,34.638-36.476l-7.364-74.98Zm52.408,102.352c-18.079-.487-34.208-15.227-35.947-32.919s11.59-31.507,29.684-30.861c18,.635,33.931,15.378,35.652,32.911S1661.875,786.759,1643.878,786.272Z" transform="translate(-427.601 -437.628)"/><path class="f" d="M1622.693,1445.343l7.057-.184a76.666,76.666,0,0,1,12.068,1.094l-2.384-24.319,8.583.167,2.5,25.494q5.928,1.3,15.975,4.292t14.421,3.055q4.4.066,6.54-5.861l3.028.049,7.887,58.764-4.535-.036q-22.655-36.309-42.165-48.578l6.064,61.8q25.809,8.226,41.583,22.6,15.742,14.34,18.456,42.015t-9.8,46.133q-12.562,18.5-37.1,23.021l1.906,19.5-8.554.131-1.829-18.617a55.41,55.41,0,0,1-7.167.392,87.04,87.04,0,0,1-11.91-.752l1.893,19.267-8.619.131-1.984-20.2-37.558-6.5q-4.986.057-7.554,8.892l-4.061.051-9.74-70.4,5.005-.017q23.357,40.825,52.745,56.219l-6.661-67.824q-25.583-8.416-40.312-23.423t-17.277-40.7q-2.52-25.648,9.362-43.082,11.842-17.362,35.585-21.511l-2.458-25.02,8.649.169Zm-28.4,35.165q1.872,19.055,26.061,28.9l-5.6-56.971q-10.23,2.858-15.85,10.317T1594.29,1480.509Zm35.026,32.278q12.691,4,19.585,5.536l-6.252-63.66q-8-3.419-13.231-3.5a31.358,31.358,0,0,0-6.14.212Zm30.065,137.094,2.45-.03-6.46-65.764q-7.01-2.685-19.35-6.267h-.307l6.775,68.948a46.3,46.3,0,0,0,16.881,3.112Zm32.953-30.912q-1.965-20.021-28.075-31.6l6.009,61.189a31.835,31.835,0,0,0,16.966-10.385q6.25-7.559,5.09-19.21Z" transform="translate(-409.697 -1018.949)"/><path class="g" d="M1586.483,527.139a91.746,91.746,0,0,0-3.059-17.387,75.937,75.937,0,0,0-6.636-16.409A65.754,65.754,0,0,0,1566.2,479.1a72.372,72.372,0,0,0-13.868-10.974,87.629,87.629,0,0,0-15.879-7.546,93.253,93.253,0,0,0-34.484-5.534,70.436,70.436,0,0,0-8.776.9,50.637,50.637,0,0,0-8.613,2.215,30.618,30.618,0,0,0-8.01,4.234,16.886,16.886,0,0,0-5.693,7.383,21,21,0,0,0-1.086,9.132,39.6,39.6,0,0,0,1.882,8.717,83.115,83.115,0,0,0,6.424,14.3l3.078.127a84.27,84.27,0,0,1-6.807-15.28,36.734,36.734,0,0,1-1.66-8.092,17.587,17.587,0,0,1,.991-7.8,13.917,13.917,0,0,1,4.764-5.988,27.478,27.478,0,0,1,7.2-3.68,55.631,55.631,0,0,1,16.413-2.723,88.129,88.129,0,0,1,16.792,1.287,92.482,92.482,0,0,1,16.261,4.417,83.612,83.612,0,0,1,15.088,7.37,68.078,68.078,0,0,1,12.949,10.493,61.284,61.284,0,0,1,9.74,13.417,70.942,70.942,0,0,1,6.059,15.513,86.828,86.828,0,0,1,2.708,16.515,92.313,92.313,0,0,1-.466,16.726c-.165,1.383-.387,2.752-.608,4.133-.273,1.361-.489,2.738-.834,4.08a65.3,65.3,0,0,1-2.329,7.94,48.227,48.227,0,0,1-3.424,7.381,26.5,26.5,0,0,1-4.757,6.182,13.135,13.135,0,0,1-6.14,3.472l-.847.165c-.286.047-.584.049-.876.08a15.174,15.174,0,0,1-1.785.025,19.119,19.119,0,0,1-3.676-.635,31.536,31.536,0,0,1-7.281-3.049,63.074,63.074,0,0,1-6.9-4.478l-.021-.015h-.015a3.015,3.015,0,0,0-.648-.341,22.8,22.8,0,0,0,.042,4.023,24.431,24.431,0,0,0,.582,3.377c1.364.879,2.752,1.717,4.209,2.5a37.5,37.5,0,0,0,8.609,3.466,24.84,24.84,0,0,0,4.806.75,18.855,18.855,0,0,0,2.515-.061c.423-.044.847-.068,1.27-.138l1.27-.256a9.166,9.166,0,0,0,1.241-.349,11.79,11.79,0,0,0,1.215-.423l1.162-.544a7.853,7.853,0,0,0,1.12-.6,21.847,21.847,0,0,0,3.9-3,31.869,31.869,0,0,0,5.64-7.465,53.473,53.473,0,0,0,3.72-8.257,70.587,70.587,0,0,0,2.422-8.6c.352-1.444.568-2.909.847-4.364.212-1.461.423-2.924.595-4.391a97.222,97.222,0,0,0,.25-17.683Z" transform="translate(-250.488 -275.581)"/><g transform="translate(1366.703 249.069)"><path class="h" d="M2375.8,882.423c-5.081-3.068-10.146.984-13.868-2.674-4.658-4.571-3.142-17.169,3.644-23.451,4.914-4.55,9.589-3.009,26.694-6.248,5.9-1.116,13.938-2.64,18.74-4.544,20.961-8.308,15.92-38,32.373-52.25,18.973-16.434,65.349-11.319,88.6,17.607,26.614,33.114,11.192,82.848-14.766,104.5-16.352,13.637-37.973,13.823-81.214,14.2-43.122.373-50.245-9.1-52.25-12.492C2376.823,905.336,2384.81,887.858,2375.8,882.423Z" transform="translate(-2318.397 -783.979)"/><path class="i" d="M2172.043,1475.476c-5.81-7.874-6.928-18.691-4.544-27.26,4.023-14.478,15.571-13.55,21.581-30.1,3.887-10.7.635-15.456,6.248-23.29,4.12-5.763,12.6-12.594,18.608-11.01,17.978,4.77,26.078,88.215-2.708,102.439C2199.709,1491.956,2180.777,1487.313,2172.043,1475.476Z" transform="translate(-2166.325 -1256.632)"/><path class="j" d="M2420.828,1917.836c-18.357,5.539-21.234,41.119-23,63.016-1.992,24.656-4.213,52.122,11.554,76.725,19.834,30.946,60.911,46.1,104.548,41.754q-.677-4.224-1.357-8.448c-44.786-17.095-57.017-36.307-60.1-50.437-6.564-30.048,25.568-49.345,17.268-81.938C2463.48,1933.959,2437.082,1912.932,2420.828,1917.836Z" transform="translate(-2347.709 -1677.205)"/><g transform="translate(72.836 210.057)"><path class="k" d="M2579.2,1830.337c-9.962-14.685-19.672-29.542-29.4-44.38a24.537,24.537,0,0,1-3.555-9.847,68.113,68.113,0,0,0-10.978,11.035,549.738,549.738,0,0,0-18.9,133.948c-.589,33.863,7.063,136.262,10.76,162,1.353.277,1.844-3.248,3.229-2.983,1.694.322,2.117,3.387,3.769,3.677,4.916-51.972,10.554-98.876,13.4-122.985.966-8.179,3.811-32.714,16.953-52.478.212-.318,19.648-26.889,26.356-37.518,2.234-3.536,5.026-8.122,8.2-14.255C2591.5,1848.632,2585.461,1839.575,2579.2,1830.337Z" transform="translate(-2515.06 -1776.108)"/><path class="l" d="M2529.745,3094.742c-.76-1.757-4.958,2.661-8.867,7.328l1.512,20.152a16.723,16.723,0,0,0-5.113-2.3c-2.374-.546-6.473.307-6.788,1.442-1.944,7,15.511,8.528,17.425,6.329a6.232,6.232,0,0,0,1.482-4.772c-1.77-10.087-1.537-16.919-.7-21.636C2529.29,3097.967,2530.168,3095.714,2529.745,3094.742Z" transform="translate(-2510.338 -2815.242)"/><path class="m" d="M2547.782,3023.737c1.353.277,1.844-3.248,3.229-2.983,1.694.322,2.117,3.388,3.769,3.678,1.8-19,3.69-37.312,5.5-54.09a169.817,169.817,0,0,0-17.745-.932C2544.416,2993.248,2546.383,3014,2547.782,3023.737Z" transform="translate(-2535.722 -2716.756)"/><path class="n" d="M2587.742,1830.329c-9.962-14.685-19.671-29.542-29.4-44.38a24.538,24.538,0,0,1-3.555-9.849,68.143,68.143,0,0,0-10.978,11.039,547.889,547.889,0,0,0-16.635,92.748c10.163-.589,19.873,5.395,22.731,12.543,5.911,14.778-12.731,26.349-12.543,57.339.1,16.976,6.174,21.236,3.411,36.819a90.27,90.27,0,0,0-1.842,25c.392,5.331.822,4.171,1.148,8.988.931,13.726-2.342,26.343-.923,34.914a20.171,20.171,0,0,0,1.965,6.011,19.445,19.445,0,0,0,3.271,4.535c4.457-44.738,9.159-83.917,11.677-105.245.966-8.179,3.811-32.714,16.953-52.478.212-.318,19.648-26.889,26.356-37.518,2.233-3.536,5.026-8.122,8.2-14.256C2600.043,1848.624,2594.007,1839.565,2587.742,1830.329Z" transform="translate(-2523.606 -1776.1)"/></g><path class="o" d="M2254.539,1639.7l1.342-2.769a51.583,51.583,0,0,0,4.55-7.275c1.313-2.928,1.027-5.308-1.677-7.15s-5.293,1.228-7.55,3.862c-1.378,1.6-1.526,4.969-1.4,7.694.087,1.906-1.27,5.736-1.27,5.736Z" transform="translate(-2231.125 -1444.526)"/><path class="p" d="M2306.677,1321.516a46.054,46.054,0,0,0-4.87,27.925c2.132,15.568,11.509,26.074,13.809,28.879,10.866,13.259,17.044,43.774-2.46,118.92,4.476,1.971,23.323,20.665,26.139,8.291,3.836-16.868,10.783-129.788,10.586,1.719,0,1.732,3.483.381,5.293.521a119,119,0,0,0,43.689-4.631,121.67,121.67,0,0,0,49.914-29.726,237.45,237.45,0,0,1-35.25-58.586c-20.135-48.1-19.566-91.728-17.349-115.8-9.227-3.108-38.041-11.507-65.457,1.768C2323.884,1304.1,2313.272,1309.423,2306.677,1321.516Z" transform="translate(-2272.78 -1185.65)"/><g transform="translate(14.18 169.637)"><path class="q" d="M2234.711,1591.093l31.587,38.142a2.945,2.945,0,0,0,2.329,1.135h22.443a2.941,2.941,0,0,0,2.484-4.516l-24.042-37.911c-.551-.868-1.931-2.752-3.919-2.752l-27.124.72C2236.051,1585.958,2233.222,1589.183,2234.711,1591.093Z" transform="translate(-2234.086 -1585.19)"/><path class="r" d="M2233.92,1597.019l29.114,37.378a2.939,2.939,0,0,0,2.329,1.135h22.443a2.941,2.941,0,0,0,2.484-4.516l-24.042-37.911a2.943,2.943,0,0,0-2.541-1.366l-27.525.534a2.941,2.941,0,0,0-2.263,4.747Z" transform="translate(-2233.3 -1590.351)"/></g><path class="f" d="M2460.3,1701.708l-2.78-1.321a51.749,51.749,0,0,0-7.311-4.491c-2.937-1.289-5.317-.982-7.137,1.734s1.27,5.274,3.923,7.518c1.613,1.366,4.98,1.482,7.7,1.342,1.906-.1,5.746,1.224,5.746,1.224Z" transform="translate(-2384.048 -1502.241)"/><path class="s" d="M2832.338,2690.177a184.222,184.222,0,0,1-27.313-12.8,65.863,65.863,0,0,0-2.937,20.944,143.154,143.154,0,0,0,31.6.3Q2833.013,2694.4,2832.338,2690.177Z" transform="translate(-2667.473 -2276.499)"/><path class="t" d="M2940.35,2738.578l.978-1.694a1.717,1.717,0,0,1,2.589,1.124c.832,2.183,5.547,13.55,5.8,18.714-1.239,3.087-4.74.472-5.462-1.628s-3.225-9.881-3.225-9.881Z" transform="translate(-2776.469 -2323.202)"/><path class="u" d="M2572.031,1507.294a240.235,240.235,0,0,1-18.365-96.454c-8.541,4.184-19.409,11.241-21.526,22.132-2.795,14.374,11.922,23.741,7.662,33.891-5.259,12.536-31.09,6.259-36.495,18.988-2.988,7.038,2.2,15.323,10.938,29.286,7.734,12.354,14.249,23.434,27.262,30.1,18.746,9.61,29.453,4.105,40.323,13.633,5.914,5.187,9,12.306,10.535,19.51a125.08,125.08,0,0,0,14.916-12.492A237.426,237.426,0,0,1,2572.031,1507.294Z" transform="translate(-2431.29 -1278.118)"/><g transform="translate(47.278 83.793)"><path class="o" d="M2413.341,1210.81c0,2.426.085,15.418,5.858,17.55,1.271.468,2.274.169,7.872.316,3.191.083,5.786.254,7.457.383a41.075,41.075,0,0,1-2.026,8.52c-7.184,20.211-30.431,34.253-38.308,29.195-4.1-2.634-4.419-10.535-4.55-13.813a27.6,27.6,0,0,1,1.857-11.061q4.326-3.142,8.85-6.295,2.964-2.058,5.882-4.036-.2-3.728-.4-7.457Z" transform="translate(-2389.624 -1204.232)"/><path class="f" d="M2425.273,1191.112s.027,10.692-8.509,14.169c-7.643,3.115-17.668-14.821-14.647-20.652a10.836,10.836,0,0,1,6.947-4.753c2.054-.37,10.586-.423,13,6.278.718-2.117,2.149-3.491,3.625-3.506a2.814,2.814,0,0,1,1.455.483C2429.095,1184.525,2428.546,1187.79,2425.273,1191.112Z" transform="translate(-2399.037 -1179.743)"/></g><path class="v" d="M2554.906,1313.869c7.806-1.944,7.846-4.484,18.287-.968,29.985,10.093,61.724,55.341,45.32,87.294-9.123,17.772-30.986,33.8-55.089,30.1-19.621-3.009-31.145-17.618-34.075-21.581q-1.7-6.816-3.409-13.629c12.788,7.247,21.793,7.245,27.829,5.678,10.275-2.668,12.555-10.029,29.534-16.47,6.612-2.509,10.586-3.03,10.8-5.111.423-4.3-16.21-5.738-26.692-14.766C2559.757,1357.842,2552.133,1344.43,2554.906,1313.869Z" transform="translate(-2449.801 -1199.533)"/><path class="w" d="M2211.942,1694.21l9.087,1.421c1.124.764,14.624,10.245,13.338,23.853-.167,1.77-.794,8.469-5.395,11.075-7.1,4.023-21.5-2.884-24.706-14.2C2202.12,1708.775,2205.281,1700.179,2211.942,1694.21Z" transform="translate(-2195.708 -1501.491)"/><path class="h" d="M3115.414,1165.918a1.137,1.137,0,0,1-.424-2.191c24.7-9.858,29.836-52.529,29.885-52.959a1.136,1.136,0,0,1,2.257.256,115.107,115.107,0,0,1-5.753,23.37c-5.928,16.267-14.766,27.141-25.547,31.443a1.171,1.171,0,0,1-.419.081Z" transform="translate(-2913.573 -1040.784)"/><path class="h" d="M2432.521,1064.058a1.1,1.1,0,0,1-.356-.057,1.135,1.135,0,0,1-.724-1.429c.1-.3,2.494-7.347,12.056-9.739,1.385-.347,2.865-.677,4.383-1.014,7.984-1.778,17.035-3.8,17.211-9.655a1.188,1.188,0,0,1,1.171-1.1,1.139,1.139,0,0,1,1.1,1.169c-.229,7.622-10.2,9.847-18.99,11.806-1.495.332-2.964.658-4.323,1-8.293,2.079-10.375,8-10.451,8.257A1.139,1.139,0,0,1,2432.521,1064.058Z" transform="translate(-2375.266 -986.629)"/></g></g></svg>