<svg xmlns="http://www.w3.org/2000/svg" xmlns:xlink="http://www.w3.org/1999/xlink" width="595" height="707" viewBox="0 0 595 707"><defs><style>.a,.b{fill:url(#a);}.b{filter:url(#e);}.c{fill:#141469;}.d{clip-path:url(#i);}.e{fill:#0e3c98;}.f{filter:url(#g);}.g{filter:url(#b);}</style><linearGradient id="a" x1="0.5" x2="0.5" y2="1" gradientUnits="objectBoundingBox"><stop offset="0" stop-color="#0a5aac"/><stop offset="1" stop-color="#2866cc"/></linearGradient><filter id="b" x="0" y="0" width="595" height="707" filterUnits="userSpaceOnUse"><feOffset dy="3" input="SourceAlpha"/><feGaussianBlur stdDeviation="20.5" result="c"/><feFlood flood-opacity="0.11"/><feComposite operator="in" in2="c"/><feComposite in="SourceGraphic"/></filter><filter id="e" x="0" y="0" width="595" height="707" filterUnits="userSpaceOnUse"><feOffset dy="3" input="SourceAlpha"/><feGaussianBlur stdDeviation="20.5" result="f"/><feFlood flood-opacity="0.11"/><feComposite operator="in" in2="f"/><feComposite in="SourceGraphic"/></filter><filter id="g" x="0" y="0" width="595" height="707" filterUnits="userSpaceOnUse"><feOffset dy="3" input="SourceAlpha"/><feGaussianBlur stdDeviation="20.5" result="h"/><feFlood flood-opacity="0.11"/><feComposite operator="in" in2="h"/><feComposite in="SourceGraphic"/></filter><clipPath id="i"><g class="g" transform="matrix(1, 0, 0, 1, 0, 0)"><rect class="a" width="472" height="584" rx="30"/></g></clipPath></defs><g transform="translate(-7587.5 1446.5)"><g transform="translate(6965 -2605)"><g class="f" transform="matrix(1, 0, 0, 1, 622.5, 1158.5)"><path class="c" d="M27.336,0H444.664C459.761,0,472,11.335,472,25.318V558.682C472,572.665,459.761,584,444.664,584H27.336C12.239,584,0,572.665,0,558.682V25.318C0,11.335,12.239,0,27.336,0Z" transform="translate(61.5 58.5)"/></g><g class="d" transform="translate(684 1217)"><path class="e" d="M-99.8-124.256c-42.407-38.27-183.086-11.2-183.086-11.2s-14.836,14.634,3.451,44.582c18.022,30.193,62.813,50.567,94.883,65.05C-152.214-11.1-113.254,17.62-113.254,17.62S-57.389-85.986-99.8-124.256Z" transform="translate(578.886 135.92)"/></g><g class="d" transform="translate(684 1217)"><path class="e" d="M276.486,16.612c36.973-8.313,86.927-10.747,115.6,7.881,28.668,18.875,35.795,58.817,16.9,89.477-18.64,30.9-63.566,52.529-95.73,67.907-32.432,15.633-52.365,25.024-71.792,45.545-19.158,20.267-38.067,51.423-64.125,64.18-25.8,13-58.743,7.349-91.279-4.006s-64.913-28.9-75.789-55.631c-10.613-26.735.014-62.645,17.509-89.806A151.62,151.62,0,0,1,90.91,86.174c22.329-10.686,42.617-13.4,59-17.507s28.6-9.6,46.972-19.447S239.244,25.179,276.486,16.612Z" transform="translate(14.011 426.186) rotate(20)"/><path class="e" d="M326.934,7.166s36.479-1.3,65.154,17.326c28.668,18.875,35.795,58.817,16.9,89.477-18.64,30.9-22.5,56.815-22.5,56.815Z" transform="translate(-303.086 -82.704) rotate(20)"/></g></g></g></svg>